<?xml version="1.0" encoding="UTF-8" standalone="no"?>
<!-- Created with Inkscape (http://www.inkscape.org/) -->

<svg
   width="81.614464mm"
   height="100.15845mm"
   viewBox="0 0 81.614464 100.15845"
   version="1.1"
   id="svg5"
   xml:space="preserve"
   inkscape:version="1.2.2 (b0a8486541, 2022-12-01)"
   sodipodi:docname="dating_problem.ink.svg"
   xmlns:inkscape="http://www.inkscape.org/namespaces/inkscape"
   xmlns:sodipodi="http://sodipodi.sourceforge.net/DTD/sodipodi-0.dtd"
   xmlns="http://www.w3.org/2000/svg"
   xmlns:svg="http://www.w3.org/2000/svg"
   xmlns:ns5="http://www.iki.fi/pav/software/textext/"><sodipodi:namedview
     id="namedview7"
     pagecolor="#ffffff"
     bordercolor="#666666"
     borderopacity="1.0"
     inkscape:showpageshadow="2"
     inkscape:pageopacity="0.0"
     inkscape:pagecheckerboard="0"
     inkscape:deskcolor="#d1d1d1"
     inkscape:document-units="mm"
     showgrid="false"
     inkscape:zoom="3.3242267"
     inkscape:cx="154.47202"
     inkscape:cy="191.32269"
     inkscape:window-width="2256"
     inkscape:window-height="1435"
     inkscape:window-x="0"
     inkscape:window-y="0"
     inkscape:window-maximized="1"
     inkscape:current-layer="layer9" /><defs
     id="defs2"><marker
   style="overflow:visible"
   id="marker15992"
   refX="0"
   refY="0"
   orient="auto-start-reverse"
   inkscape:stockid="Arrow5"
   markerWidth="5.8874264"
   markerHeight="6.6094756"
   viewBox="0 0 5.8874262 6.6094758"
   inkscape:isstock="true"
   inkscape:collect="always"
   preserveAspectRatio="xMidYMid"><path
     transform="scale(0.5)"
     style="fill:context-stroke;fill-rule:evenodd;stroke:context-stroke;stroke-width:1pt"
     d="m 6,0 c -3,1 -7,3 -9,5 0,0 0,-4 2,-5 -2,-1 -2,-5 -2,-5 2,2 6,4 9,5 z"
     id="path15990" /></marker><marker
   style="overflow:visible"
   id="Arrow5"
   refX="0"
   refY="0"
   orient="auto-start-reverse"
   inkscape:stockid="Arrow5"
   markerWidth="5.8874264"
   markerHeight="6.6094756"
   viewBox="0 0 5.8874262 6.6094758"
   inkscape:isstock="true"
   inkscape:collect="always"
   preserveAspectRatio="xMidYMid"><path
     transform="scale(0.5)"
     style="fill:context-stroke;fill-rule:evenodd;stroke:context-stroke;stroke-width:1pt"
     d="m 6,0 c -3,1 -7,3 -9,5 0,0 0,-4 2,-5 -2,-1 -2,-5 -2,-5 2,2 6,4 9,5 z"
     id="path8893" /></marker><marker
   style="overflow:visible"
   id="marker15748"
   refX="0"
   refY="0"
   orient="auto-start-reverse"
   inkscape:stockid="Arrow5"
   markerWidth="5.8874264"
   markerHeight="6.6094756"
   viewBox="0 0 5.8874262 6.6094758"
   inkscape:isstock="true"
   inkscape:collect="always"
   preserveAspectRatio="xMidYMid"><path
     transform="scale(0.5)"
     style="fill:context-stroke;fill-rule:evenodd;stroke:context-stroke;stroke-width:1pt"
     d="m 6,0 c -3,1 -7,3 -9,5 0,0 0,-4 2,-5 -2,-1 -2,-5 -2,-5 2,2 6,4 9,5 z"
     id="path15746" /></marker><defs
   id="id-ea259aef-2077-4e3a-9f5f-e8e0e19d742c">
    <g
   id="id-84a93242-d5d9-4fb7-b352-f7f5462d80f5">
      <g
   id="id-1b8f0e5f-20cd-4976-9a27-dd6a6fe548ec">
        <path
   d="m 4.578125,-3.1875 c 0,-0.796875 -0.046875,-1.59375 -0.390625,-2.328125 -0.453125,-0.96875 -1.28125,-1.125 -1.6875,-1.125 -0.609375,0 -1.328125,0.265625 -1.75,1.1875 -0.3125,0.6875 -0.359375,1.46875 -0.359375,2.265625 0,0.75 0.03125,1.640625 0.453125,2.40625 0.421875,0.796875 1.15625,1 1.640625,1 0.53125,0 1.296875,-0.203125 1.734375,-1.15625 0.3125,-0.6875 0.359375,-1.46875 0.359375,-2.25 z M 2.484375,0 C 2.09375,0 1.5,-0.25 1.328125,-1.203125 1.21875,-1.796875 1.21875,-2.71875 1.21875,-3.3125 c 0,-0.640625 0,-1.296875 0.078125,-1.828125 0.1875,-1.1875 0.9375,-1.28125 1.1875,-1.28125 0.328125,0 0.984375,0.1875 1.171875,1.171875 0.109375,0.5625 0.109375,1.3125 0.109375,1.9375 0,0.75 0,1.421875 -0.109375,2.0625 C 3.5,-0.296875 2.9375,0 2.484375,0 Z m 0,0"
   id="id-cf18dd28-ee9c-498b-b787-80a1d6989e85" />
      </g>
      <g
   id="id-2527831d-75a5-432b-84cc-682876e453a4">
        <path
   d="m 2.9375,-6.375 c 0,-0.25 0,-0.265625 -0.234375,-0.265625 C 2.078125,-6 1.203125,-6 0.890625,-6 v 0.3125 c 0.203125,0 0.78125,0 1.296875,-0.265625 v 5.171875 c 0,0.359375 -0.03125,0.46875 -0.921875,0.46875 h -0.3125 V 0 c 0.34375,-0.03125 1.203125,-0.03125 1.609375,-0.03125 0.390625,0 1.265625,0 1.609375,0.03125 v -0.3125 h -0.3125 c -0.90625,0 -0.921875,-0.109375 -0.921875,-0.46875 z m 0,0"
   id="id-28d1f24c-7690-43cd-9ecb-3699ffd95785" />
      </g>
      <g
   id="id-7fa37233-d0db-4630-9c71-9b7c6cc3d46e">
        <path
   d="m 1.265625,-0.765625 1.0625,-1.03125 c 1.546875,-1.375 2.140625,-1.90625 2.140625,-2.90625 0,-1.140625 -0.890625,-1.9375 -2.109375,-1.9375 -1.125,0 -1.859375,0.921875 -1.859375,1.8125 0,0.546875 0.5,0.546875 0.53125,0.546875 0.171875,0 0.515625,-0.109375 0.515625,-0.53125 0,-0.25 -0.1875,-0.515625 -0.53125,-0.515625 -0.078125,0 -0.09375,0 -0.125,0.015625 0.21875,-0.65625 0.765625,-1.015625 1.34375,-1.015625 0.90625,0 1.328125,0.8125 1.328125,1.625 C 3.5625,-3.90625 3.078125,-3.125 2.515625,-2.5 l -1.90625,2.125 C 0.5,-0.265625 0.5,-0.234375 0.5,0 H 4.203125 L 4.46875,-1.734375 H 4.234375 C 4.171875,-1.4375 4.109375,-1 4,-0.84375 3.9375,-0.765625 3.28125,-0.765625 3.0625,-0.765625 Z m 0,0"
   id="id-7d168ae5-bc18-43ae-9b4f-24eafbff5d5d" />
      </g>
      <g
   id="id-897d0ffb-70e3-44bd-8a1a-e0edd5ebd7bf">
        <path
   d="m 2.890625,-3.515625 c 0.8125,-0.265625 1.390625,-0.953125 1.390625,-1.75 0,-0.8125 -0.875,-1.375 -1.828125,-1.375 -1,0 -1.765625,0.59375 -1.765625,1.359375 0,0.328125 0.21875,0.515625 0.515625,0.515625 0.296875,0 0.5,-0.21875 0.5,-0.515625 0,-0.484375 -0.46875,-0.484375 -0.609375,-0.484375 0.296875,-0.5 0.953125,-0.625 1.3125,-0.625 0.421875,0 0.96875,0.21875 0.96875,1.109375 0,0.125 -0.03125,0.703125 -0.28125,1.140625 C 2.796875,-3.65625 2.453125,-3.625 2.203125,-3.625 2.125,-3.609375 1.890625,-3.59375 1.8125,-3.59375 c -0.078125,0.015625 -0.140625,0.03125 -0.140625,0.125 0,0.109375 0.0625,0.109375 0.234375,0.109375 h 0.4375 c 0.8125,0 1.1875,0.671875 1.1875,1.65625 0,1.359375 -0.6875,1.640625 -1.125,1.640625 -0.4375,0 -1.1875,-0.171875 -1.53125,-0.75 0.34375,0.046875 0.65625,-0.171875 0.65625,-0.546875 0,-0.359375 -0.265625,-0.5625 -0.546875,-0.5625 -0.25,0 -0.5625,0.140625 -0.5625,0.578125 0,0.90625 0.921875,1.5625 2.015625,1.5625 1.21875,0 2.125,-0.90625 2.125,-1.921875 0,-0.8125 -0.640625,-1.59375 -1.671875,-1.8125 z m 0,0"
   id="id-09ee816c-17d1-4053-97e7-8fae15fc10a5" />
      </g>
    </g>
  </defs>
  
  
  
  
</defs><g
     inkscape:groupmode="layer"
     id="layer3"
     inkscape:label="transit"
     style="display:inline"><g
       id="g19510"
       transform="translate(-1.9447937,-9.3856273)"><path
         style="fill:none;fill-rule:evenodd;stroke:#000000;stroke-width:0.264583px;stroke-linecap:butt;stroke-linejoin:miter;stroke-opacity:1"
         d="M 47.639887,69.869361 H 69.696938"
         id="path10300" /><path
         id="path10282"
         style="fill:#c26a77;fill-opacity:1;stroke:#9f7d9b;stroke-width:0.264999;stroke-linecap:round;stroke-dasharray:0.794999, 0.794999"
         d="M 64.945321,68.533368 H 53.785795 v 2.477885 h 11.159526 z" /></g><g
       id="g19498"
       transform="translate(-1.9447937,-15.206461)"><path
         style="fill:none;fill-rule:evenodd;stroke:#000000;stroke-width:0.264583px;stroke-linecap:butt;stroke-linejoin:miter;stroke-opacity:1"
         d="M 25.450336,90.547856 H 47.507387"
         id="path10290" /><path
         id="rect10222"
         style="fill:#c26a77;fill-opacity:1;stroke:#9f7d9b;stroke-width:0.264999;stroke-linecap:round;stroke-dasharray:0.794999, 0.794999"
         d="m 31.592596,89.308915 h -6.14226 V 91.7868 h 6.14226 z" /><path
         id="path10287"
         style="fill:#c26a77;fill-opacity:1;stroke:#9f7d9b;stroke-width:0.264999;stroke-linecap:round;stroke-dasharray:0.794999, 0.794999"
         d="M 42.752122,89.308915 V 91.7868 h 4.755265 v -2.477885 z" /></g><rect
       style="fill:#ffffff;fill-opacity:0.524849;stroke:none;stroke-width:0.264999;stroke-linecap:round;stroke-dasharray:0.264583, 0.79375;stroke-dashoffset:0;stroke-opacity:0.492242"
       id="rect18829"
       width="51.435604"
       height="39.610298"
       x="18.86372"
       y="39.640781" /></g><g
     inkscape:groupmode="layer"
     id="layer7"
     inkscape:label="times"
     style="display:inline"><g
       transform="matrix(0.35277801,0,0,0.35277801,74.671452,43.823832)"
       ns5:version="1.8.2"
       ns5:texconverter="pdflatex"
       ns5:pdfconverter="inkscape"
       ns5:text="$t_2$\n"
       ns5:preamble="/home/peter/.config/inkscape/extensions/textext/default_packages.tex"
       ns5:scale="1.0"
       ns5:alignment="middle center"
       ns5:stroke-to-path="0"
       ns5:inkscapeversion="1.2.2"
       ns5:jacobian_sqrt="0.352778"
       id="g24453"
       style="display:inline"><defs
   id="id-2f828ff8-4e85-4319-b8f6-d3db7af0f7f9">
    <g
   id="id-d9ad00b0-7c63-4b6c-b67f-dbb45ab73836">
      <g
   id="id-adbfbfdf-d27a-4ac3-a591-df8f162410cb">
        <path
   d="m 2.046875,-3.984375 h 0.9375 c 0.203125,0 0.3125,0 0.3125,-0.203125 0,-0.109375 -0.109375,-0.109375 -0.28125,-0.109375 h -0.875 C 2.5,-5.71875 2.546875,-5.90625 2.546875,-5.96875 c 0,-0.171875 -0.125,-0.265625 -0.296875,-0.265625 -0.03125,0 -0.3125,0 -0.390625,0.359375 L 1.46875,-4.296875 h -0.9375 c -0.203125,0 -0.296875,0 -0.296875,0.1875 0,0.125 0.078125,0.125 0.28125,0.125 h 0.875 C 0.671875,-1.15625 0.625,-0.984375 0.625,-0.8125 0.625,-0.265625 1,0.109375 1.546875,0.109375 2.5625,0.109375 3.125,-1.34375 3.125,-1.421875 3.125,-1.53125 3.046875,-1.53125 3.015625,-1.53125 2.921875,-1.53125 2.90625,-1.5 2.859375,-1.390625 2.4375,-0.34375 1.90625,-0.109375 1.5625,-0.109375 c -0.203125,0 -0.3125,-0.125 -0.3125,-0.453125 0,-0.25 0.03125,-0.3125 0.0625,-0.484375 z m 0,0"
   id="id-2c48616e-25b5-4f57-993f-9a96ac8b3e06" />
      </g>
      <g
   id="id-6765be76-3453-44f5-b974-43e18213541a">
        <path
   d="M 3.515625,-1.265625 H 3.28125 c -0.015625,0.15625 -0.09375,0.5625 -0.1875,0.625 C 3.046875,-0.59375 2.515625,-0.59375 2.40625,-0.59375 H 1.125 c 0.734375,-0.640625 0.984375,-0.84375 1.390625,-1.171875 0.515625,-0.40625 1,-0.84375 1,-1.5 0,-0.84375 -0.734375,-1.359375 -1.625,-1.359375 -0.859375,0 -1.453125,0.609375 -1.453125,1.25 0,0.34375 0.296875,0.390625 0.375,0.390625 0.15625,0 0.359375,-0.125 0.359375,-0.375 0,-0.125 -0.046875,-0.375 -0.40625,-0.375 C 0.984375,-4.21875 1.453125,-4.375 1.78125,-4.375 c 0.703125,0 1.0625,0.546875 1.0625,1.109375 0,0.609375 -0.4375,1.078125 -0.65625,1.328125 L 0.515625,-0.265625 C 0.4375,-0.203125 0.4375,-0.1875 0.4375,0 h 2.875 z m 0,0"
   id="id-17afd0a7-15a6-464a-804d-03cdc2a8e99e" />
      </g>
    </g>
  </defs>
  <g
   fill="#000000"
   fill-opacity="1"
   id="id-35bb47a2-f6be-4d92-b3e7-53b3f855759a"
   transform="translate(-148.946,-128.531)">
    <g
   transform="translate(148.712,134.765)"
   id="g24446"><path
   d="m 2.046875,-3.984375 h 0.9375 c 0.203125,0 0.3125,0 0.3125,-0.203125 0,-0.109375 -0.109375,-0.109375 -0.28125,-0.109375 h -0.875 C 2.5,-5.71875 2.546875,-5.90625 2.546875,-5.96875 c 0,-0.171875 -0.125,-0.265625 -0.296875,-0.265625 -0.03125,0 -0.3125,0 -0.390625,0.359375 L 1.46875,-4.296875 h -0.9375 c -0.203125,0 -0.296875,0 -0.296875,0.1875 0,0.125 0.078125,0.125 0.28125,0.125 h 0.875 C 0.671875,-1.15625 0.625,-0.984375 0.625,-0.8125 0.625,-0.265625 1,0.109375 1.546875,0.109375 2.5625,0.109375 3.125,-1.34375 3.125,-1.421875 3.125,-1.53125 3.046875,-1.53125 3.015625,-1.53125 2.921875,-1.53125 2.90625,-1.5 2.859375,-1.390625 2.4375,-0.34375 1.90625,-0.109375 1.5625,-0.109375 c -0.203125,0 -0.3125,-0.125 -0.3125,-0.453125 0,-0.25 0.03125,-0.3125 0.0625,-0.484375 z m 0,0"
   id="id-08ec5d87-c5e3-47ea-9dcf-c2f499df245c" />
      </g></g>
  <g
   fill="#000000"
   fill-opacity="1"
   id="id-804540d5-fb64-49e6-b1cc-e272449bb01b"
   transform="translate(-148.946,-128.531)">
    <g
   transform="translate(152.31,136.259)"
   id="g24450"><path
   d="M 3.515625,-1.265625 H 3.28125 c -0.015625,0.15625 -0.09375,0.5625 -0.1875,0.625 C 3.046875,-0.59375 2.515625,-0.59375 2.40625,-0.59375 H 1.125 c 0.734375,-0.640625 0.984375,-0.84375 1.390625,-1.171875 0.515625,-0.40625 1,-0.84375 1,-1.5 0,-0.84375 -0.734375,-1.359375 -1.625,-1.359375 -0.859375,0 -1.453125,0.609375 -1.453125,1.25 0,0.34375 0.296875,0.390625 0.375,0.390625 0.15625,0 0.359375,-0.125 0.359375,-0.375 0,-0.125 -0.046875,-0.375 -0.40625,-0.375 C 0.984375,-4.21875 1.453125,-4.375 1.78125,-4.375 c 0.703125,0 1.0625,0.546875 1.0625,1.109375 0,0.609375 -0.4375,1.078125 -0.65625,1.328125 L 0.515625,-0.265625 C 0.4375,-0.203125 0.4375,-0.1875 0.4375,0 h 2.875 z m 0,0"
   id="id-c780585d-95f7-4fce-bf8a-a2e60cd59144" />
      </g></g>
</g><g
       transform="matrix(0.35277801,0,0,0.35277801,74.660601,8.87389)"
       ns5:version="1.8.2"
       ns5:texconverter="pdflatex"
       ns5:pdfconverter="inkscape"
       ns5:text="$t_3$"
       ns5:preamble="/home/peter/.config/inkscape/extensions/textext/default_packages.tex"
       ns5:scale="1.0"
       ns5:alignment="middle center"
       ns5:stroke-to-path="0"
       ns5:inkscapeversion="1.2.2"
       ns5:jacobian_sqrt="0.352778"
       id="g24511"
       style="display:inline"><defs
   id="id-f43b9bee-f4da-4b79-810f-204e93a1ac95">
    <g
   id="id-8059ffe4-9614-47ec-88f2-a1692a722369">
      <g
   id="id-d84f79bd-6946-4903-9d3b-d3663ae76f11">
        <path
   d="m 2.046875,-3.984375 h 0.9375 c 0.203125,0 0.3125,0 0.3125,-0.203125 0,-0.109375 -0.109375,-0.109375 -0.28125,-0.109375 h -0.875 C 2.5,-5.71875 2.546875,-5.90625 2.546875,-5.96875 c 0,-0.171875 -0.125,-0.265625 -0.296875,-0.265625 -0.03125,0 -0.3125,0 -0.390625,0.359375 L 1.46875,-4.296875 h -0.9375 c -0.203125,0 -0.296875,0 -0.296875,0.1875 0,0.125 0.078125,0.125 0.28125,0.125 h 0.875 C 0.671875,-1.15625 0.625,-0.984375 0.625,-0.8125 0.625,-0.265625 1,0.109375 1.546875,0.109375 2.5625,0.109375 3.125,-1.34375 3.125,-1.421875 3.125,-1.53125 3.046875,-1.53125 3.015625,-1.53125 2.921875,-1.53125 2.90625,-1.5 2.859375,-1.390625 2.4375,-0.34375 1.90625,-0.109375 1.5625,-0.109375 c -0.203125,0 -0.3125,-0.125 -0.3125,-0.453125 0,-0.25 0.03125,-0.3125 0.0625,-0.484375 z m 0,0"
   id="id-2aa190b0-441b-4c6a-a0b7-b36b634ff9fe" />
      </g>
      <g
   id="id-40924a3d-71e5-45fd-b4d5-7ec3cd255175">
        <path
   d="m 1.90625,-2.328125 c 0.546875,0 0.9375,0.375 0.9375,1.125 0,0.859375 -0.515625,1.125 -0.90625,1.125 -0.28125,0 -0.90625,-0.078125 -1.1875,-0.5 0.328125,0 0.40625,-0.234375 0.40625,-0.390625 0,-0.21875 -0.171875,-0.375 -0.390625,-0.375 -0.1875,0 -0.390625,0.125 -0.390625,0.40625 0,0.65625 0.71875,1.078125 1.5625,1.078125 0.96875,0 1.640625,-0.65625 1.640625,-1.34375 0,-0.546875 -0.4375,-1.09375 -1.203125,-1.25 0.71875,-0.265625 0.984375,-0.78125 0.984375,-1.21875 0,-0.546875 -0.625,-0.953125 -1.40625,-0.953125 -0.765625,0 -1.359375,0.375 -1.359375,0.9375 0,0.234375 0.15625,0.359375 0.359375,0.359375 0.21875,0 0.359375,-0.15625 0.359375,-0.34375 0,-0.203125 -0.140625,-0.359375 -0.359375,-0.375 0.25,-0.296875 0.71875,-0.375 0.984375,-0.375 0.3125,0 0.75,0.15625 0.75,0.75 0,0.296875 -0.09375,0.625 -0.28125,0.828125 -0.21875,0.265625 -0.421875,0.28125 -0.765625,0.3125 -0.171875,0.015625 -0.1875,0.015625 -0.21875,0.015625 -0.015625,0 -0.078125,0.015625 -0.078125,0.09375 0,0.09375 0.0625,0.09375 0.1875,0.09375 z m 0,0"
   id="id-0b8673a0-2ff7-4815-a26b-9a566bd229e0" />
      </g>
    </g>
  </defs>
  <g
   fill="#000000"
   fill-opacity="1"
   id="id-6f02cf43-f3bc-4f51-bb4a-536bb4e619ed"
   transform="translate(-148.946,-128.531)">
    <g
   transform="translate(148.712,134.765)"
   id="g24968"><path
   d="m 2.046875,-3.984375 h 0.9375 c 0.203125,0 0.3125,0 0.3125,-0.203125 0,-0.109375 -0.109375,-0.109375 -0.28125,-0.109375 h -0.875 C 2.5,-5.71875 2.546875,-5.90625 2.546875,-5.96875 c 0,-0.171875 -0.125,-0.265625 -0.296875,-0.265625 -0.03125,0 -0.3125,0 -0.390625,0.359375 L 1.46875,-4.296875 h -0.9375 c -0.203125,0 -0.296875,0 -0.296875,0.1875 0,0.125 0.078125,0.125 0.28125,0.125 h 0.875 C 0.671875,-1.15625 0.625,-0.984375 0.625,-0.8125 0.625,-0.265625 1,0.109375 1.546875,0.109375 2.5625,0.109375 3.125,-1.34375 3.125,-1.421875 3.125,-1.53125 3.046875,-1.53125 3.015625,-1.53125 2.921875,-1.53125 2.90625,-1.5 2.859375,-1.390625 2.4375,-0.34375 1.90625,-0.109375 1.5625,-0.109375 c -0.203125,0 -0.3125,-0.125 -0.3125,-0.453125 0,-0.25 0.03125,-0.3125 0.0625,-0.484375 z m 0,0"
   id="id-0eb76708-3ca9-4164-a0ab-a858ed2b1ff5" />
      </g></g>
  <g
   fill="#000000"
   fill-opacity="1"
   id="id-b7e5fff1-e1c3-4d76-89ce-e1590503f92c"
   transform="translate(-148.946,-128.531)">
    <g
   transform="translate(152.31,136.259)"
   id="g24972"><path
   d="m 1.90625,-2.328125 c 0.546875,0 0.9375,0.375 0.9375,1.125 0,0.859375 -0.515625,1.125 -0.90625,1.125 -0.28125,0 -0.90625,-0.078125 -1.1875,-0.5 0.328125,0 0.40625,-0.234375 0.40625,-0.390625 0,-0.21875 -0.171875,-0.375 -0.390625,-0.375 -0.1875,0 -0.390625,0.125 -0.390625,0.40625 0,0.65625 0.71875,1.078125 1.5625,1.078125 0.96875,0 1.640625,-0.65625 1.640625,-1.34375 0,-0.546875 -0.4375,-1.09375 -1.203125,-1.25 0.71875,-0.265625 0.984375,-0.78125 0.984375,-1.21875 0,-0.546875 -0.625,-0.953125 -1.40625,-0.953125 -0.765625,0 -1.359375,0.375 -1.359375,0.9375 0,0.234375 0.15625,0.359375 0.359375,0.359375 0.21875,0 0.359375,-0.15625 0.359375,-0.34375 0,-0.203125 -0.140625,-0.359375 -0.359375,-0.375 0.25,-0.296875 0.71875,-0.375 0.984375,-0.375 0.3125,0 0.75,0.15625 0.75,0.75 0,0.296875 -0.09375,0.625 -0.28125,0.828125 -0.21875,0.265625 -0.421875,0.28125 -0.765625,0.3125 -0.171875,0.015625 -0.1875,0.015625 -0.21875,0.015625 -0.015625,0 -0.078125,0.015625 -0.078125,0.09375 0,0.09375 0.0625,0.09375 0.1875,0.09375 z m 0,0"
   id="id-e8647800-601b-421d-bd8d-9167d529c9f5" />
      </g></g>
</g><path
       style="display:inline;fill:none;fill-rule:evenodd;stroke:#000000;stroke-width:0.264583px;stroke-linecap:butt;stroke-linejoin:miter;stroke-dasharray:0.264583, 0.793749;stroke-dashoffset:0;stroke-opacity:1"
       d="M 17.631949,45.178701 H 73.459833"
       id="path24018"
       sodipodi:nodetypes="cc" /><path
       style="display:inline;fill:none;fill-rule:evenodd;stroke:#000000;stroke-width:0.264583px;stroke-linecap:butt;stroke-linejoin:miter;stroke-dasharray:0.264583, 0.793749;stroke-dashoffset:0;stroke-opacity:1"
       d="M 38.798616,10.253699 H 73.459833"
       id="path24025"
       sodipodi:nodetypes="cc" /></g><g
     inkscape:groupmode="layer"
     id="layer2"
     inkscape:label="samples"
     style="display:inline"><path
       style="fill:none;fill-rule:evenodd;stroke:#000000;stroke-width:0.264583px;stroke-linecap:butt;stroke-linejoin:miter;stroke-dasharray:0.264583, 0.793749;stroke-dashoffset:0;stroke-opacity:1"
       d="M 4.4027771,91.216206 H 61.818158"
       id="path17685"
       sodipodi:nodetypes="cc" /><g
       transform="matrix(0.352778,0,0,0.352778,64.023932,89.7732)"
       ns5:version="1.8.2"
       ns5:texconverter="pdflatex"
       ns5:pdfconverter="inkscape"
       ns5:text="$t_0=t_1=0$"
       ns5:preamble="/home/peter/.config/inkscape/extensions/textext/default_packages.tex"
       ns5:scale="1.0"
       ns5:alignment="middle center"
       ns5:stroke-to-path="0"
       ns5:inkscapeversion="1.2.2"
       ns5:jacobian_sqrt="0.352778"
       id="g17804"><defs
   id="id-2032f736-187d-4895-974f-d3457fdb39e9">
    <g
   id="id-e5144fb1-6df4-4940-b9c3-75de79220c04">
      <g
   id="id-93edaccd-ca74-4298-b08b-b9def735e1dc">
        <path
   d="m 2.046875,-3.984375 h 0.9375 c 0.203125,0 0.3125,0 0.3125,-0.203125 0,-0.109375 -0.109375,-0.109375 -0.28125,-0.109375 h -0.875 C 2.5,-5.71875 2.546875,-5.90625 2.546875,-5.96875 c 0,-0.171875 -0.125,-0.265625 -0.296875,-0.265625 -0.03125,0 -0.3125,0 -0.390625,0.359375 L 1.46875,-4.296875 h -0.9375 c -0.203125,0 -0.296875,0 -0.296875,0.1875 0,0.125 0.078125,0.125 0.28125,0.125 h 0.875 C 0.671875,-1.15625 0.625,-0.984375 0.625,-0.8125 0.625,-0.265625 1,0.109375 1.546875,0.109375 2.5625,0.109375 3.125,-1.34375 3.125,-1.421875 3.125,-1.53125 3.046875,-1.53125 3.015625,-1.53125 2.921875,-1.53125 2.90625,-1.5 2.859375,-1.390625 2.4375,-0.34375 1.90625,-0.109375 1.5625,-0.109375 c -0.203125,0 -0.3125,-0.125 -0.3125,-0.453125 0,-0.25 0.03125,-0.3125 0.0625,-0.484375 z m 0,0"
   id="id-f38b3f6c-28e0-425c-a40e-9418094c7280" />
      </g>
      <g
   id="id-0990f078-6903-4a25-adde-cb6610780838">
        <path
   d="M 3.59375,-2.21875 C 3.59375,-2.984375 3.5,-3.546875 3.1875,-4.03125 2.96875,-4.34375 2.53125,-4.625 1.984375,-4.625 c -1.625,0 -1.625,1.90625 -1.625,2.40625 0,0.5 0,2.359375 1.625,2.359375 1.609375,0 1.609375,-1.859375 1.609375,-2.359375 z M 1.984375,-0.0625 c -0.328125,0 -0.75,-0.1875 -0.890625,-0.75 C 1,-1.21875 1,-1.796875 1,-2.3125 1,-2.828125 1,-3.359375 1.09375,-3.734375 1.25,-4.28125 1.6875,-4.4375 1.984375,-4.4375 c 0.375,0 0.734375,0.234375 0.859375,0.640625 0.109375,0.375 0.125,0.875 0.125,1.484375 0,0.515625 0,1.03125 -0.09375,1.46875 -0.140625,0.640625 -0.609375,0.78125 -0.890625,0.78125 z m 0,0"
   id="id-a81a8f3e-6144-445b-91a0-fc91766df321" />
      </g>
      <g
   id="id-3b6c9381-377a-4216-881b-972dcf0510ce">
        <path
   d="m 2.328125,-4.4375 c 0,-0.1875 0,-0.1875 -0.203125,-0.1875 -0.453125,0.4375 -1.078125,0.4375 -1.359375,0.4375 v 0.25 c 0.15625,0 0.625,0 1,-0.1875 v 3.546875 c 0,0.234375 0,0.328125 -0.6875,0.328125 H 0.8125 V 0 c 0.125,0 0.984375,-0.03125 1.234375,-0.03125 0.21875,0 1.09375,0.03125 1.25,0.03125 V -0.25 H 3.03125 c -0.703125,0 -0.703125,-0.09375 -0.703125,-0.328125 z m 0,0"
   id="id-c0ff7700-36e5-4b40-93c6-4cca35eea22e" />
      </g>
      <g
   id="id-3c9d2bf3-b37e-4650-8457-8a8492652c9f">
        <path
   d="m 6.84375,-3.265625 c 0.15625,0 0.34375,0 0.34375,-0.1875 C 7.1875,-3.65625 7,-3.65625 6.859375,-3.65625 h -5.96875 c -0.140625,0 -0.328125,0 -0.328125,0.203125 0,0.1875 0.1875,0.1875 0.328125,0.1875 z m 0.015625,1.9375 c 0.140625,0 0.328125,0 0.328125,-0.203125 0,-0.1875 -0.1875,-0.1875 -0.34375,-0.1875 H 0.890625 c -0.140625,0 -0.328125,0 -0.328125,0.1875 0,0.203125 0.1875,0.203125 0.328125,0.203125 z m 0,0"
   id="id-8708993e-81eb-414a-9773-caae0d21ef3d" />
      </g>
      <g
   id="id-8af950e5-65e9-417f-a313-6636816212a2">
        <path
   d="m 4.578125,-3.1875 c 0,-0.796875 -0.046875,-1.59375 -0.390625,-2.328125 -0.453125,-0.96875 -1.28125,-1.125 -1.6875,-1.125 -0.609375,0 -1.328125,0.265625 -1.75,1.1875 -0.3125,0.6875 -0.359375,1.46875 -0.359375,2.265625 0,0.75 0.03125,1.640625 0.453125,2.40625 0.421875,0.796875 1.15625,1 1.640625,1 0.53125,0 1.296875,-0.203125 1.734375,-1.15625 0.3125,-0.6875 0.359375,-1.46875 0.359375,-2.25 z M 2.484375,0 C 2.09375,0 1.5,-0.25 1.328125,-1.203125 1.21875,-1.796875 1.21875,-2.71875 1.21875,-3.3125 c 0,-0.640625 0,-1.296875 0.078125,-1.828125 0.1875,-1.1875 0.9375,-1.28125 1.1875,-1.28125 0.328125,0 0.984375,0.1875 1.171875,1.171875 0.109375,0.5625 0.109375,1.3125 0.109375,1.9375 0,0.75 0,1.421875 -0.109375,2.0625 C 3.5,-0.296875 2.9375,0 2.484375,0 Z m 0,0"
   id="id-d94c45e9-0e1a-4024-b03a-ddcbfc509a37" />
      </g>
    </g>
  </defs>
  <g
   fill="#000000"
   fill-opacity="1"
   id="id-31c090c1-1d3f-4f09-b4bf-82756fc46efb"
   transform="translate(-148.946,-128.124)">
    <g
   transform="translate(148.712,134.765)"
   id="g18719"><path
   d="m 2.046875,-3.984375 h 0.9375 c 0.203125,0 0.3125,0 0.3125,-0.203125 0,-0.109375 -0.109375,-0.109375 -0.28125,-0.109375 h -0.875 C 2.5,-5.71875 2.546875,-5.90625 2.546875,-5.96875 c 0,-0.171875 -0.125,-0.265625 -0.296875,-0.265625 -0.03125,0 -0.3125,0 -0.390625,0.359375 L 1.46875,-4.296875 h -0.9375 c -0.203125,0 -0.296875,0 -0.296875,0.1875 0,0.125 0.078125,0.125 0.28125,0.125 h 0.875 C 0.671875,-1.15625 0.625,-0.984375 0.625,-0.8125 0.625,-0.265625 1,0.109375 1.546875,0.109375 2.5625,0.109375 3.125,-1.34375 3.125,-1.421875 3.125,-1.53125 3.046875,-1.53125 3.015625,-1.53125 2.921875,-1.53125 2.90625,-1.5 2.859375,-1.390625 2.4375,-0.34375 1.90625,-0.109375 1.5625,-0.109375 c -0.203125,0 -0.3125,-0.125 -0.3125,-0.453125 0,-0.25 0.03125,-0.3125 0.0625,-0.484375 z m 0,0"
   id="id-33890ff1-845d-4e8a-9094-d5e2bb0c1f8d" />
      </g></g>
  <g
   fill="#000000"
   fill-opacity="1"
   id="id-82ca1d1e-5626-40bb-a55a-2ce6c2633088"
   transform="translate(-148.946,-128.124)">
    <g
   transform="translate(152.31,136.259)"
   id="g18723"><path
   d="M 3.59375,-2.21875 C 3.59375,-2.984375 3.5,-3.546875 3.1875,-4.03125 2.96875,-4.34375 2.53125,-4.625 1.984375,-4.625 c -1.625,0 -1.625,1.90625 -1.625,2.40625 0,0.5 0,2.359375 1.625,2.359375 1.609375,0 1.609375,-1.859375 1.609375,-2.359375 z M 1.984375,-0.0625 c -0.328125,0 -0.75,-0.1875 -0.890625,-0.75 C 1,-1.21875 1,-1.796875 1,-2.3125 1,-2.828125 1,-3.359375 1.09375,-3.734375 1.25,-4.28125 1.6875,-4.4375 1.984375,-4.4375 c 0.375,0 0.734375,0.234375 0.859375,0.640625 0.109375,0.375 0.125,0.875 0.125,1.484375 0,0.515625 0,1.03125 -0.09375,1.46875 -0.140625,0.640625 -0.609375,0.78125 -0.890625,0.78125 z m 0,0"
   id="id-42c3abd5-9eff-4d7a-9bc8-a4311da2d147" />
      </g></g>
  <g
   fill="#000000"
   fill-opacity="1"
   id="id-29b3acc4-e0cd-4fc8-b95f-08b76dffb8d9"
   transform="translate(-148.946,-128.124)">
    <g
   transform="translate(159.547,134.765)"
   id="g18727"><path
   d="m 6.84375,-3.265625 c 0.15625,0 0.34375,0 0.34375,-0.1875 C 7.1875,-3.65625 7,-3.65625 6.859375,-3.65625 h -5.96875 c -0.140625,0 -0.328125,0 -0.328125,0.203125 0,0.1875 0.1875,0.1875 0.328125,0.1875 z m 0.015625,1.9375 c 0.140625,0 0.328125,0 0.328125,-0.203125 0,-0.1875 -0.1875,-0.1875 -0.34375,-0.1875 H 0.890625 c -0.140625,0 -0.328125,0 -0.328125,0.1875 0,0.203125 0.1875,0.203125 0.328125,0.203125 z m 0,0"
   id="id-a547c1ae-2931-4a3d-ae1f-b32d1244de06" />
      </g></g>
  <g
   fill="#000000"
   fill-opacity="1"
   id="id-bae39377-a924-45b7-b254-e6ca96557183"
   transform="translate(-148.946,-128.124)">
    <g
   transform="translate(170.063,134.765)"
   id="g18731"><path
   d="m 2.046875,-3.984375 h 0.9375 c 0.203125,0 0.3125,0 0.3125,-0.203125 0,-0.109375 -0.109375,-0.109375 -0.28125,-0.109375 h -0.875 C 2.5,-5.71875 2.546875,-5.90625 2.546875,-5.96875 c 0,-0.171875 -0.125,-0.265625 -0.296875,-0.265625 -0.03125,0 -0.3125,0 -0.390625,0.359375 L 1.46875,-4.296875 h -0.9375 c -0.203125,0 -0.296875,0 -0.296875,0.1875 0,0.125 0.078125,0.125 0.28125,0.125 h 0.875 C 0.671875,-1.15625 0.625,-0.984375 0.625,-0.8125 0.625,-0.265625 1,0.109375 1.546875,0.109375 2.5625,0.109375 3.125,-1.34375 3.125,-1.421875 3.125,-1.53125 3.046875,-1.53125 3.015625,-1.53125 2.921875,-1.53125 2.90625,-1.5 2.859375,-1.390625 2.4375,-0.34375 1.90625,-0.109375 1.5625,-0.109375 c -0.203125,0 -0.3125,-0.125 -0.3125,-0.453125 0,-0.25 0.03125,-0.3125 0.0625,-0.484375 z m 0,0"
   id="id-369061db-ba65-4fb9-a29b-1f1f5d322999" />
      </g></g>
  <g
   fill="#000000"
   fill-opacity="1"
   id="id-74d43156-daa9-45cc-9d85-5099680df990"
   transform="translate(-148.946,-128.124)">
    <g
   transform="translate(173.66,136.259)"
   id="g18735"><path
   d="m 2.328125,-4.4375 c 0,-0.1875 0,-0.1875 -0.203125,-0.1875 -0.453125,0.4375 -1.078125,0.4375 -1.359375,0.4375 v 0.25 c 0.15625,0 0.625,0 1,-0.1875 v 3.546875 c 0,0.234375 0,0.328125 -0.6875,0.328125 H 0.8125 V 0 c 0.125,0 0.984375,-0.03125 1.234375,-0.03125 0.21875,0 1.09375,0.03125 1.25,0.03125 V -0.25 H 3.03125 c -0.703125,0 -0.703125,-0.09375 -0.703125,-0.328125 z m 0,0"
   id="id-7cc03be0-7ab1-4c80-bb23-009d74ce561a" />
      </g></g>
  <g
   fill="#000000"
   fill-opacity="1"
   id="id-3e8662dc-fbb4-425c-b126-7796c9f557fa"
   transform="translate(-148.946,-128.124)">
    <g
   transform="translate(180.897,134.765)"
   id="g18739"><path
   d="m 6.84375,-3.265625 c 0.15625,0 0.34375,0 0.34375,-0.1875 C 7.1875,-3.65625 7,-3.65625 6.859375,-3.65625 h -5.96875 c -0.140625,0 -0.328125,0 -0.328125,0.203125 0,0.1875 0.1875,0.1875 0.328125,0.1875 z m 0.015625,1.9375 c 0.140625,0 0.328125,0 0.328125,-0.203125 0,-0.1875 -0.1875,-0.1875 -0.34375,-0.1875 H 0.890625 c -0.140625,0 -0.328125,0 -0.328125,0.1875 0,0.203125 0.1875,0.203125 0.328125,0.203125 z m 0,0"
   id="id-6436b06d-5e2f-4e21-b077-f241903a38e2" />
      </g></g>
  <g
   fill="#000000"
   fill-opacity="1"
   id="id-304c52dc-697d-454d-bd0f-82d7d1747da5"
   transform="translate(-148.946,-128.124)">
    <g
   transform="translate(191.416,134.765)"
   id="g18743"><path
   d="m 4.578125,-3.1875 c 0,-0.796875 -0.046875,-1.59375 -0.390625,-2.328125 -0.453125,-0.96875 -1.28125,-1.125 -1.6875,-1.125 -0.609375,0 -1.328125,0.265625 -1.75,1.1875 -0.3125,0.6875 -0.359375,1.46875 -0.359375,2.265625 0,0.75 0.03125,1.640625 0.453125,2.40625 0.421875,0.796875 1.15625,1 1.640625,1 0.53125,0 1.296875,-0.203125 1.734375,-1.15625 0.3125,-0.6875 0.359375,-1.46875 0.359375,-2.25 z M 2.484375,0 C 2.09375,0 1.5,-0.25 1.328125,-1.203125 1.21875,-1.796875 1.21875,-2.71875 1.21875,-3.3125 c 0,-0.640625 0,-1.296875 0.078125,-1.828125 0.1875,-1.1875 0.9375,-1.28125 1.1875,-1.28125 0.328125,0 0.984375,0.1875 1.171875,1.171875 0.109375,0.5625 0.109375,1.3125 0.109375,1.9375 0,0.75 0,1.421875 -0.109375,2.0625 C 3.5,-0.296875 2.9375,0 2.484375,0 Z m 0,0"
   id="id-f67da766-e0a6-4c02-8534-11eb066abc46" />
      </g></g>
</g></g><g
     inkscape:label="base"
     inkscape:groupmode="layer"
     id="layer1"
     transform="translate(-1.9447937,-25.789795)"
     style="display:inline"><rect
       style="fill:#94cbec;fill-opacity:1;stroke:#9f7d9b;stroke-width:0.264999;stroke-linecap:round;stroke-dasharray:0.794999, 0.794999"
       id="rect1642"
       width="22.057163"
       height="2.477751"
       x="4.8128099"
       y="115.76713" /><rect
       style="fill:#c26a77;fill-opacity:1;stroke:#9f7d9b;stroke-width:0.264999;stroke-linecap:round;stroke-dasharray:0.794999, 0.794999"
       id="rect1644"
       width="22.057163"
       height="2.477751"
       x="38.679478"
       y="115.76713" /><rect
       style="fill:#94cbec;fill-opacity:1;stroke:#9f7d9b;stroke-width:0.264999;stroke-linecap:round;stroke-dasharray:0.794999, 0.794999"
       id="rect10218"
       width="22.057163"
       height="2.477751"
       x="4.8128099"
       y="115.76713" /><rect
       style="fill:#337538;fill-opacity:1;stroke:#9f7d9b;stroke-width:0.264999;stroke-linecap:round;stroke-dasharray:0.794999, 0.794999"
       id="rect10220"
       width="22.057163"
       height="2.477751"
       x="18.041979"
       y="69.729645" /><rect
       style="fill:#9f4a96;fill-opacity:1;stroke:#9f7d9b;stroke-width:0.264999;stroke-linecap:round;stroke-dasharray:0.794999, 0.794999"
       id="rect10319"
       width="22.057163"
       height="2.477751"
       x="40.266979"
       y="34.804634" /><path
       style="fill:none;fill-rule:evenodd;stroke:#000000;stroke-width:0.264583px;stroke-linecap:butt;stroke-linejoin:miter;stroke-opacity:1;marker-end:url(#marker15748)"
       d="M 7.6530642,97.645573 V 49.158858"
       id="path15527" /><path
       style="fill:none;fill-rule:evenodd;stroke:#000000;stroke-width:0.264583px;stroke-linecap:butt;stroke-linejoin:miter;stroke-dasharray:0.529166, 0.264583;stroke-dashoffset:0;stroke-opacity:1;marker-end:url(#Arrow5)"
       d="M 15.841391,115.76713 C 6.496593,91.968767 22.162173,95.567427 25.317836,75.869019"
       id="path15844"
       sodipodi:nodetypes="cc" /><path
       style="fill:none;fill-rule:evenodd;stroke:#000000;stroke-width:0.264583px;stroke-linecap:butt;stroke-linejoin:miter;stroke-dasharray:0.529166, 0.264583;stroke-dashoffset:0;stroke-opacity:1"
       d="M 50.9237,115.63463 C 50.507095,109.26921 36.478861,112.09901 36.478861,103.34356"
       id="path15988"
       sodipodi:nodetypes="cc" /><path
       style="fill:none;fill-rule:evenodd;stroke:#000000;stroke-width:0.264583px;stroke-linecap:butt;stroke-linejoin:miter;stroke-dasharray:0.529166, 0.264583;stroke-dashoffset:0;stroke-opacity:1"
       d="m 50.9237,115.63463 c -0.416605,-6.36542 10.007811,-4.64437 7.744712,-26.599108"
       id="path16060"
       sodipodi:nodetypes="cc" /><path
       style="fill:none;fill-rule:evenodd;stroke:#000000;stroke-width:0.264583px;stroke-linecap:butt;stroke-linejoin:miter;stroke-dasharray:0.529166, 0.264583;stroke-dashoffset:0;stroke-opacity:1;marker-end:url(#marker15992)"
       d="M 58.142193,83.449229 C 57.725588,77.083812 52.947104,49.135413 51.295561,39.034354"
       id="path16074"
       sodipodi:nodetypes="cc" /><path
       style="fill:none;fill-rule:evenodd;stroke:#000000;stroke-width:0.264583px;stroke-linecap:butt;stroke-linejoin:miter;stroke-dasharray:0.529166, 0.264583;stroke-dashoffset:0;stroke-opacity:1;marker-end:url(#marker15992)"
       d="M 28.155047,68.001796 C 27.738442,61.636379 44.725699,50.145501 48.046507,39.82805"
       id="path16080"
       sodipodi:nodetypes="cc" /><path
       style="fill:none;fill-rule:evenodd;stroke:#000000;stroke-width:0.264583px;stroke-linecap:butt;stroke-linejoin:miter;stroke-dasharray:0.529166, 0.264583;stroke-dashoffset:0;stroke-opacity:1;marker-end:url(#marker15992)"
       d="M 36.478861,98.801992 C 36.905129,81.662681 27.746092,89.409546 29.07056,75.158487"
       id="path16090"
       sodipodi:nodetypes="cc" /><text
       xml:space="preserve"
       style="font-style:normal;font-variant:normal;font-weight:normal;font-stretch:normal;font-size:4.23333px;line-height:125%;font-family:'Liberation Serif';-inkscape-font-specification:'Liberation Serif, Normal';font-variant-ligatures:normal;font-variant-position:normal;font-variant-caps:normal;font-variant-numeric:normal;font-variant-alternates:normal;font-variant-east-asian:normal;text-indent:0;text-align:start;text-decoration-line:none;text-decoration-style:solid;text-decoration-color:#000000;letter-spacing:0px;word-spacing:0px;text-transform:none;writing-mode:lr-tb;direction:ltr;text-orientation:mixed;dominant-baseline:auto;baseline-shift:baseline;text-anchor:start;white-space:normal;shape-padding:0;shape-margin:0;opacity:1;vector-effect:none;fill:#000000;fill-opacity:1;stroke:none;stroke-width:0.264583px;stroke-linecap:butt;stroke-linejoin:miter;stroke-miterlimit:4;stroke-dasharray:none;stroke-dashoffset:0;stroke-opacity:1;-inkscape-stroke:none;stop-color:#000000;stop-opacity:1"
       x="-1.6696892"
       y="47.509518"
       id="text1146"><tspan
         sodipodi:role="line"
         id="tspan1144"
         x="-1.6696892"
         y="47.509518"
         style="stroke-width:0.264583px">Past</tspan></text></g><g
     inkscape:groupmode="layer"
     id="layer4"
     inkscape:label="nodes"
     style="display:inline"><g
       fill="#000000"
       fill-opacity="1"
       id="id-8bed99f8-dbbb-48ab-bcbc-69478a0271a3"
       transform="matrix(0.46545479,0,0,0.46545479,-46.541997,33.049931)">
    <g
   transform="translate(148.712,134.765)"
   id="g1083"><path
   d="m 4.578125,-3.1875 c 0,-0.796875 -0.046875,-1.59375 -0.390625,-2.328125 -0.453125,-0.96875 -1.28125,-1.125 -1.6875,-1.125 -0.609375,0 -1.328125,0.265625 -1.75,1.1875 -0.3125,0.6875 -0.359375,1.46875 -0.359375,2.265625 0,0.75 0.03125,1.640625 0.453125,2.40625 0.421875,0.796875 1.15625,1 1.640625,1 0.53125,0 1.296875,-0.203125 1.734375,-1.15625 0.3125,-0.6875 0.359375,-1.46875 0.359375,-2.25 z M 2.484375,0 C 2.09375,0 1.5,-0.25 1.328125,-1.203125 1.21875,-1.796875 1.21875,-2.71875 1.21875,-3.3125 c 0,-0.640625 0,-1.296875 0.078125,-1.828125 0.1875,-1.1875 0.9375,-1.28125 1.1875,-1.28125 0.328125,0 0.984375,0.1875 1.171875,1.171875 0.109375,0.5625 0.109375,1.3125 0.109375,1.9375 0,0.75 0,1.421875 -0.109375,2.0625 C 3.5,-0.296875 2.9375,0 2.484375,0 Z m 0,0"
   id="id-12ed5aad-9637-4cbf-9d6b-cbad2baddcdc" />
      </g></g><g
       fill="#000000"
       fill-opacity="1"
       id="id-74c746aa-77e4-4424-b741-8666b37ed33f"
       transform="matrix(0.46545479,0,0,0.46545479,-16.628162,33.151749)">
    <g
   transform="translate(157.011,134.765)"
   id="g1087"><path
   d="m 2.9375,-6.375 c 0,-0.25 0,-0.265625 -0.234375,-0.265625 C 2.078125,-6 1.203125,-6 0.890625,-6 v 0.3125 c 0.203125,0 0.78125,0 1.296875,-0.265625 v 5.171875 c 0,0.359375 -0.03125,0.46875 -0.921875,0.46875 h -0.3125 V 0 c 0.34375,-0.03125 1.203125,-0.03125 1.609375,-0.03125 0.390625,0 1.265625,0 1.609375,0.03125 v -0.3125 h -0.3125 c -0.90625,0 -0.921875,-0.109375 -0.921875,-0.46875 z m 0,0"
   id="id-37532a0b-67da-4b78-b50e-e1e841e0b0d2" />
      </g></g><g
       fill="#000000"
       fill-opacity="1"
       id="id-4cc1e0f9-4b42-41a2-9ed3-3c4fb5cc0df2"
       transform="matrix(0.46545479,0,0,0.46545479,-41.038908,-12.627882)">
    <g
   transform="translate(165.32,134.765)"
   id="g1091"><path
   d="m 1.265625,-0.765625 1.0625,-1.03125 c 1.546875,-1.375 2.140625,-1.90625 2.140625,-2.90625 0,-1.140625 -0.890625,-1.9375 -2.109375,-1.9375 -1.125,0 -1.859375,0.921875 -1.859375,1.8125 0,0.546875 0.5,0.546875 0.53125,0.546875 0.171875,0 0.515625,-0.109375 0.515625,-0.53125 0,-0.25 -0.1875,-0.515625 -0.53125,-0.515625 -0.078125,0 -0.09375,0 -0.125,0.015625 0.21875,-0.65625 0.765625,-1.015625 1.34375,-1.015625 0.90625,0 1.328125,0.8125 1.328125,1.625 C 3.5625,-3.90625 3.078125,-3.125 2.515625,-2.5 l -1.90625,2.125 C 0.5,-0.265625 0.5,-0.234375 0.5,0 H 4.203125 L 4.46875,-1.734375 H 4.234375 C 4.171875,-1.4375 4.109375,-1 4,-0.84375 3.9375,-0.765625 3.28125,-0.765625 3.0625,-0.765625 Z m 0,0"
   id="id-6f8ad03c-a32a-4f88-b91e-a2b9650ad6b3" />
      </g></g><g
       fill="#000000"
       fill-opacity="1"
       id="id-9f2be877-e4c2-402b-b53e-27ea29d184f8"
       transform="matrix(0.46545479,0,0,0.46545479,-22.423584,-48.011014)">
    <g
   transform="translate(173.619,134.765)"
   id="g1095"><path
   d="m 2.890625,-3.515625 c 0.8125,-0.265625 1.390625,-0.953125 1.390625,-1.75 0,-0.8125 -0.875,-1.375 -1.828125,-1.375 -1,0 -1.765625,0.59375 -1.765625,1.359375 0,0.328125 0.21875,0.515625 0.515625,0.515625 0.296875,0 0.5,-0.21875 0.5,-0.515625 0,-0.484375 -0.46875,-0.484375 -0.609375,-0.484375 0.296875,-0.5 0.953125,-0.625 1.3125,-0.625 0.421875,0 0.96875,0.21875 0.96875,1.109375 0,0.125 -0.03125,0.703125 -0.28125,1.140625 C 2.796875,-3.65625 2.453125,-3.625 2.203125,-3.625 2.125,-3.609375 1.890625,-3.59375 1.8125,-3.59375 c -0.078125,0.015625 -0.140625,0.03125 -0.140625,0.125 0,0.109375 0.0625,0.109375 0.234375,0.109375 h 0.4375 c 0.8125,0 1.1875,0.671875 1.1875,1.65625 0,1.359375 -0.6875,1.640625 -1.125,1.640625 -0.4375,0 -1.1875,-0.171875 -1.53125,-0.75 0.34375,0.046875 0.65625,-0.171875 0.65625,-0.546875 0,-0.359375 -0.265625,-0.5625 -0.546875,-0.5625 -0.25,0 -0.5625,0.140625 -0.5625,0.578125 0,0.90625 0.921875,1.5625 2.015625,1.5625 1.21875,0 2.125,-0.90625 2.125,-1.921875 0,-0.8125 -0.640625,-1.59375 -1.671875,-1.8125 z m 0,0"
   id="id-ed8271e0-9047-4f9b-90eb-5e2bc709c30f" />
      </g></g></g><g
     inkscape:groupmode="layer"
     id="layer5"
     inkscape:label="edges"
     style="display:inline"><g
       transform="matrix(0.352778,0,0,0.352778,56.044334,48.5254)"
       ns5:version="1.8.2"
       ns5:texconverter="pdflatex"
       ns5:pdfconverter="inkscape"
       ns5:text="$t_1 &lt; t_3$"
       ns5:preamble="/home/peter/.config/inkscape/extensions/textext/default_packages.tex"
       ns5:scale="1.0"
       ns5:alignment="middle center"
       ns5:stroke-to-path="0"
       ns5:inkscapeversion="1.2.2"
       ns5:jacobian_sqrt="0.352778"
       id="g20021"><defs
   id="id-2dd0dc3c-3a86-41d0-95ec-7b8f623b33ed">
    <g
   id="id-56f4b76e-9499-4333-84e7-87c0958d3f46">
      <g
   id="id-10280d62-1970-41e4-8e7b-c6fe52747b72">
        <path
   d="m 2.046875,-3.984375 h 0.9375 c 0.203125,0 0.3125,0 0.3125,-0.203125 0,-0.109375 -0.109375,-0.109375 -0.28125,-0.109375 h -0.875 C 2.5,-5.71875 2.546875,-5.90625 2.546875,-5.96875 c 0,-0.171875 -0.125,-0.265625 -0.296875,-0.265625 -0.03125,0 -0.3125,0 -0.390625,0.359375 L 1.46875,-4.296875 h -0.9375 c -0.203125,0 -0.296875,0 -0.296875,0.1875 0,0.125 0.078125,0.125 0.28125,0.125 h 0.875 C 0.671875,-1.15625 0.625,-0.984375 0.625,-0.8125 0.625,-0.265625 1,0.109375 1.546875,0.109375 2.5625,0.109375 3.125,-1.34375 3.125,-1.421875 3.125,-1.53125 3.046875,-1.53125 3.015625,-1.53125 2.921875,-1.53125 2.90625,-1.5 2.859375,-1.390625 2.4375,-0.34375 1.90625,-0.109375 1.5625,-0.109375 c -0.203125,0 -0.3125,-0.125 -0.3125,-0.453125 0,-0.25 0.03125,-0.3125 0.0625,-0.484375 z m 0,0"
   id="id-fdf5f75e-4463-4090-afd2-cb58439ca067" />
      </g>
      <g
   id="id-4798e041-5dc3-4a05-9af9-3aa501c405d7">
        <path
   d="m 6.734375,-4.96875 c 0.109375,-0.0625 0.1875,-0.109375 0.1875,-0.21875 0,-0.109375 -0.09375,-0.203125 -0.203125,-0.203125 -0.03125,0 -0.046875,0 -0.171875,0.078125 l -5.53125,2.59375 c -0.109375,0.0625 -0.1875,0.109375 -0.1875,0.21875 0,0.125 0.078125,0.171875 0.1875,0.234375 l 5.53125,2.59375 C 6.671875,0.40625 6.6875,0.40625 6.71875,0.40625 c 0.109375,0 0.203125,-0.09375 0.203125,-0.203125 0,-0.109375 -0.078125,-0.15625 -0.1875,-0.21875 L 1.5,-2.5 Z m 0,0"
   id="id-1e91f8b1-4c9c-4a85-a31f-17eee545c6fa" />
      </g>
      <g
   id="id-337c8407-4d79-47a3-ba7d-7f482f015afe">
        <path
   d="m 2.328125,-4.4375 c 0,-0.1875 0,-0.1875 -0.203125,-0.1875 -0.453125,0.4375 -1.078125,0.4375 -1.359375,0.4375 v 0.25 c 0.15625,0 0.625,0 1,-0.1875 v 3.546875 c 0,0.234375 0,0.328125 -0.6875,0.328125 H 0.8125 V 0 c 0.125,0 0.984375,-0.03125 1.234375,-0.03125 0.21875,0 1.09375,0.03125 1.25,0.03125 V -0.25 H 3.03125 c -0.703125,0 -0.703125,-0.09375 -0.703125,-0.328125 z m 0,0"
   id="id-6f137466-8ae1-452d-8998-295882dc075f" />
      </g>
      <g
   id="id-07238399-0e1b-428a-843a-9a3fa8e603dd">
        <path
   d="m 1.90625,-2.328125 c 0.546875,0 0.9375,0.375 0.9375,1.125 0,0.859375 -0.515625,1.125 -0.90625,1.125 -0.28125,0 -0.90625,-0.078125 -1.1875,-0.5 0.328125,0 0.40625,-0.234375 0.40625,-0.390625 0,-0.21875 -0.171875,-0.375 -0.390625,-0.375 -0.1875,0 -0.390625,0.125 -0.390625,0.40625 0,0.65625 0.71875,1.078125 1.5625,1.078125 0.96875,0 1.640625,-0.65625 1.640625,-1.34375 0,-0.546875 -0.4375,-1.09375 -1.203125,-1.25 0.71875,-0.265625 0.984375,-0.78125 0.984375,-1.21875 0,-0.546875 -0.625,-0.953125 -1.40625,-0.953125 -0.765625,0 -1.359375,0.375 -1.359375,0.9375 0,0.234375 0.15625,0.359375 0.359375,0.359375 0.21875,0 0.359375,-0.15625 0.359375,-0.34375 0,-0.203125 -0.140625,-0.359375 -0.359375,-0.375 0.25,-0.296875 0.71875,-0.375 0.984375,-0.375 0.3125,0 0.75,0.15625 0.75,0.75 0,0.296875 -0.09375,0.625 -0.28125,0.828125 -0.21875,0.265625 -0.421875,0.28125 -0.765625,0.3125 -0.171875,0.015625 -0.1875,0.015625 -0.21875,0.015625 -0.015625,0 -0.078125,0.015625 -0.078125,0.09375 0,0.09375 0.0625,0.09375 0.1875,0.09375 z m 0,0"
   id="id-95ed8a2a-af74-416c-8b6f-68241df84665" />
      </g>
    </g>
  </defs>
  <g
   fill="#000000"
   fill-opacity="1"
   id="id-07d04658-2c22-4119-8a18-0e0f4407fe08"
   transform="translate(-148.946,-128.531)">
    <g
   transform="translate(148.712,134.765)"
   id="g21707"><path
   d="m 2.046875,-3.984375 h 0.9375 c 0.203125,0 0.3125,0 0.3125,-0.203125 0,-0.109375 -0.109375,-0.109375 -0.28125,-0.109375 h -0.875 C 2.5,-5.71875 2.546875,-5.90625 2.546875,-5.96875 c 0,-0.171875 -0.125,-0.265625 -0.296875,-0.265625 -0.03125,0 -0.3125,0 -0.390625,0.359375 L 1.46875,-4.296875 h -0.9375 c -0.203125,0 -0.296875,0 -0.296875,0.1875 0,0.125 0.078125,0.125 0.28125,0.125 h 0.875 C 0.671875,-1.15625 0.625,-0.984375 0.625,-0.8125 0.625,-0.265625 1,0.109375 1.546875,0.109375 2.5625,0.109375 3.125,-1.34375 3.125,-1.421875 3.125,-1.53125 3.046875,-1.53125 3.015625,-1.53125 2.921875,-1.53125 2.90625,-1.5 2.859375,-1.390625 2.4375,-0.34375 1.90625,-0.109375 1.5625,-0.109375 c -0.203125,0 -0.3125,-0.125 -0.3125,-0.453125 0,-0.25 0.03125,-0.3125 0.0625,-0.484375 z m 0,0"
   id="id-57afe102-9f6d-4ce7-82e3-71221998a404" />
      </g></g>
  <g
   fill="#000000"
   fill-opacity="1"
   id="id-38930a36-073e-4c3b-8d18-cfff0ea1b26a"
   transform="translate(-148.946,-128.531)">
    <g
   transform="translate(152.31,136.259)"
   id="g21711"><path
   d="m 2.328125,-4.4375 c 0,-0.1875 0,-0.1875 -0.203125,-0.1875 -0.453125,0.4375 -1.078125,0.4375 -1.359375,0.4375 v 0.25 c 0.15625,0 0.625,0 1,-0.1875 v 3.546875 c 0,0.234375 0,0.328125 -0.6875,0.328125 H 0.8125 V 0 c 0.125,0 0.984375,-0.03125 1.234375,-0.03125 0.21875,0 1.09375,0.03125 1.25,0.03125 V -0.25 H 3.03125 c -0.703125,0 -0.703125,-0.09375 -0.703125,-0.328125 z m 0,0"
   id="id-b6f92ee2-0f1e-4d75-ba98-9f708276b2bc" />
      </g></g>
  <g
   fill="#000000"
   fill-opacity="1"
   id="id-d4db2db4-b94b-4a0d-98e9-4fc973f06635"
   transform="translate(-148.946,-128.531)">
    <g
   transform="translate(159.547,134.765)"
   id="g21715"><path
   d="m 6.734375,-4.96875 c 0.109375,-0.0625 0.1875,-0.109375 0.1875,-0.21875 0,-0.109375 -0.09375,-0.203125 -0.203125,-0.203125 -0.03125,0 -0.046875,0 -0.171875,0.078125 l -5.53125,2.59375 c -0.109375,0.0625 -0.1875,0.109375 -0.1875,0.21875 0,0.125 0.078125,0.171875 0.1875,0.234375 l 5.53125,2.59375 C 6.671875,0.40625 6.6875,0.40625 6.71875,0.40625 c 0.109375,0 0.203125,-0.09375 0.203125,-0.203125 0,-0.109375 -0.078125,-0.15625 -0.1875,-0.21875 L 1.5,-2.5 Z m 0,0"
   id="id-97cb4aa5-441c-40f5-8d29-cc9a3fd13ea8" />
      </g></g>
  <g
   fill="#000000"
   fill-opacity="1"
   id="id-991e43eb-3a9c-48e2-8da6-e3157bf36892"
   transform="translate(-148.946,-128.531)">
    <g
   transform="translate(170.066,134.765)"
   id="g21719"><path
   d="m 2.046875,-3.984375 h 0.9375 c 0.203125,0 0.3125,0 0.3125,-0.203125 0,-0.109375 -0.109375,-0.109375 -0.28125,-0.109375 h -0.875 C 2.5,-5.71875 2.546875,-5.90625 2.546875,-5.96875 c 0,-0.171875 -0.125,-0.265625 -0.296875,-0.265625 -0.03125,0 -0.3125,0 -0.390625,0.359375 L 1.46875,-4.296875 h -0.9375 c -0.203125,0 -0.296875,0 -0.296875,0.1875 0,0.125 0.078125,0.125 0.28125,0.125 h 0.875 C 0.671875,-1.15625 0.625,-0.984375 0.625,-0.8125 0.625,-0.265625 1,0.109375 1.546875,0.109375 2.5625,0.109375 3.125,-1.34375 3.125,-1.421875 3.125,-1.53125 3.046875,-1.53125 3.015625,-1.53125 2.921875,-1.53125 2.90625,-1.5 2.859375,-1.390625 2.4375,-0.34375 1.90625,-0.109375 1.5625,-0.109375 c -0.203125,0 -0.3125,-0.125 -0.3125,-0.453125 0,-0.25 0.03125,-0.3125 0.0625,-0.484375 z m 0,0"
   id="id-4b5d6e3e-a965-454f-9da0-b693a8412b95" />
      </g></g>
  <g
   fill="#000000"
   fill-opacity="1"
   id="id-c93c074c-6523-48a5-a68c-fc1d97b49dc6"
   transform="translate(-148.946,-128.531)">
    <g
   transform="translate(173.66,136.259)"
   id="g21723"><path
   d="m 1.90625,-2.328125 c 0.546875,0 0.9375,0.375 0.9375,1.125 0,0.859375 -0.515625,1.125 -0.90625,1.125 -0.28125,0 -0.90625,-0.078125 -1.1875,-0.5 0.328125,0 0.40625,-0.234375 0.40625,-0.390625 0,-0.21875 -0.171875,-0.375 -0.390625,-0.375 -0.1875,0 -0.390625,0.125 -0.390625,0.40625 0,0.65625 0.71875,1.078125 1.5625,1.078125 0.96875,0 1.640625,-0.65625 1.640625,-1.34375 0,-0.546875 -0.4375,-1.09375 -1.203125,-1.25 0.71875,-0.265625 0.984375,-0.78125 0.984375,-1.21875 0,-0.546875 -0.625,-0.953125 -1.40625,-0.953125 -0.765625,0 -1.359375,0.375 -1.359375,0.9375 0,0.234375 0.15625,0.359375 0.359375,0.359375 0.21875,0 0.359375,-0.15625 0.359375,-0.34375 0,-0.203125 -0.140625,-0.359375 -0.359375,-0.375 0.25,-0.296875 0.71875,-0.375 0.984375,-0.375 0.3125,0 0.75,0.15625 0.75,0.75 0,0.296875 -0.09375,0.625 -0.28125,0.828125 -0.21875,0.265625 -0.421875,0.28125 -0.765625,0.3125 -0.171875,0.015625 -0.1875,0.015625 -0.21875,0.015625 -0.015625,0 -0.078125,0.015625 -0.078125,0.09375 0,0.09375 0.0625,0.09375 0.1875,0.09375 z m 0,0"
   id="id-2f283ba7-9e38-42a1-8f65-b1d5b561009c" />
      </g></g>
</g><g
       transform="matrix(0.352778,0,0,0.352778,32.772034,59.133566)"
       ns5:version="1.8.2"
       ns5:texconverter="pdflatex"
       ns5:pdfconverter="inkscape"
       ns5:text="$t_1 &lt; t_2$"
       ns5:preamble="/home/peter/.config/inkscape/extensions/textext/default_packages.tex"
       ns5:scale="1.0"
       ns5:alignment="middle center"
       ns5:stroke-to-path="0"
       ns5:inkscapeversion="1.2.2"
       ns5:jacobian_sqrt="0.352778"
       id="g19985"><defs
   id="id-3e5efcd0-b4f1-4527-8adf-127b10679b7e">
    <g
   id="id-1d211d57-91f3-4813-8154-ac788fefa52d">
      <g
   id="id-33c0a1b1-b67e-4f38-b304-b124ade92ada">
        <path
   d="m 2.046875,-3.984375 h 0.9375 c 0.203125,0 0.3125,0 0.3125,-0.203125 0,-0.109375 -0.109375,-0.109375 -0.28125,-0.109375 h -0.875 C 2.5,-5.71875 2.546875,-5.90625 2.546875,-5.96875 c 0,-0.171875 -0.125,-0.265625 -0.296875,-0.265625 -0.03125,0 -0.3125,0 -0.390625,0.359375 L 1.46875,-4.296875 h -0.9375 c -0.203125,0 -0.296875,0 -0.296875,0.1875 0,0.125 0.078125,0.125 0.28125,0.125 h 0.875 C 0.671875,-1.15625 0.625,-0.984375 0.625,-0.8125 0.625,-0.265625 1,0.109375 1.546875,0.109375 2.5625,0.109375 3.125,-1.34375 3.125,-1.421875 3.125,-1.53125 3.046875,-1.53125 3.015625,-1.53125 2.921875,-1.53125 2.90625,-1.5 2.859375,-1.390625 2.4375,-0.34375 1.90625,-0.109375 1.5625,-0.109375 c -0.203125,0 -0.3125,-0.125 -0.3125,-0.453125 0,-0.25 0.03125,-0.3125 0.0625,-0.484375 z m 0,0"
   id="id-c6a8959b-27ee-4dc5-84b5-8d608897fda3" />
      </g>
      <g
   id="id-5106c6ef-919c-45a9-ac43-00272af9f496">
        <path
   d="m 6.734375,-4.96875 c 0.109375,-0.0625 0.1875,-0.109375 0.1875,-0.21875 0,-0.109375 -0.09375,-0.203125 -0.203125,-0.203125 -0.03125,0 -0.046875,0 -0.171875,0.078125 l -5.53125,2.59375 c -0.109375,0.0625 -0.1875,0.109375 -0.1875,0.21875 0,0.125 0.078125,0.171875 0.1875,0.234375 l 5.53125,2.59375 C 6.671875,0.40625 6.6875,0.40625 6.71875,0.40625 c 0.109375,0 0.203125,-0.09375 0.203125,-0.203125 0,-0.109375 -0.078125,-0.15625 -0.1875,-0.21875 L 1.5,-2.5 Z m 0,0"
   id="id-5c7b1b5e-cd06-49d3-9b21-2f5e7c3022e2" />
      </g>
      <g
   id="id-446b506f-fe26-4d8a-96e2-44b18065be53">
        <path
   d="m 2.328125,-4.4375 c 0,-0.1875 0,-0.1875 -0.203125,-0.1875 -0.453125,0.4375 -1.078125,0.4375 -1.359375,0.4375 v 0.25 c 0.15625,0 0.625,0 1,-0.1875 v 3.546875 c 0,0.234375 0,0.328125 -0.6875,0.328125 H 0.8125 V 0 c 0.125,0 0.984375,-0.03125 1.234375,-0.03125 0.21875,0 1.09375,0.03125 1.25,0.03125 V -0.25 H 3.03125 c -0.703125,0 -0.703125,-0.09375 -0.703125,-0.328125 z m 0,0"
   id="id-0caea204-217e-486a-a77f-ec35ad079940" />
      </g>
      <g
   id="id-11fa35e5-e5e8-4489-b29f-d802663dc54b">
        <path
   d="M 3.515625,-1.265625 H 3.28125 c -0.015625,0.15625 -0.09375,0.5625 -0.1875,0.625 C 3.046875,-0.59375 2.515625,-0.59375 2.40625,-0.59375 H 1.125 c 0.734375,-0.640625 0.984375,-0.84375 1.390625,-1.171875 0.515625,-0.40625 1,-0.84375 1,-1.5 0,-0.84375 -0.734375,-1.359375 -1.625,-1.359375 -0.859375,0 -1.453125,0.609375 -1.453125,1.25 0,0.34375 0.296875,0.390625 0.375,0.390625 0.15625,0 0.359375,-0.125 0.359375,-0.375 0,-0.125 -0.046875,-0.375 -0.40625,-0.375 C 0.984375,-4.21875 1.453125,-4.375 1.78125,-4.375 c 0.703125,0 1.0625,0.546875 1.0625,1.109375 0,0.609375 -0.4375,1.078125 -0.65625,1.328125 L 0.515625,-0.265625 C 0.4375,-0.203125 0.4375,-0.1875 0.4375,0 h 2.875 z m 0,0"
   id="id-93b0772d-12d7-4fc5-8e9d-a7756168706e" />
      </g>
    </g>
  </defs>
  <g
   fill="#000000"
   fill-opacity="1"
   id="id-f13d782d-6c0b-4f13-98f9-ebbd5b2824c5"
   transform="translate(-148.946,-128.531)">
    <g
   transform="translate(148.712,134.765)"
   id="g22082"><path
   d="m 2.046875,-3.984375 h 0.9375 c 0.203125,0 0.3125,0 0.3125,-0.203125 0,-0.109375 -0.109375,-0.109375 -0.28125,-0.109375 h -0.875 C 2.5,-5.71875 2.546875,-5.90625 2.546875,-5.96875 c 0,-0.171875 -0.125,-0.265625 -0.296875,-0.265625 -0.03125,0 -0.3125,0 -0.390625,0.359375 L 1.46875,-4.296875 h -0.9375 c -0.203125,0 -0.296875,0 -0.296875,0.1875 0,0.125 0.078125,0.125 0.28125,0.125 h 0.875 C 0.671875,-1.15625 0.625,-0.984375 0.625,-0.8125 0.625,-0.265625 1,0.109375 1.546875,0.109375 2.5625,0.109375 3.125,-1.34375 3.125,-1.421875 3.125,-1.53125 3.046875,-1.53125 3.015625,-1.53125 2.921875,-1.53125 2.90625,-1.5 2.859375,-1.390625 2.4375,-0.34375 1.90625,-0.109375 1.5625,-0.109375 c -0.203125,0 -0.3125,-0.125 -0.3125,-0.453125 0,-0.25 0.03125,-0.3125 0.0625,-0.484375 z m 0,0"
   id="id-60c7581e-d453-4224-b904-b9e7c41483e0" />
      </g></g>
  <g
   fill="#000000"
   fill-opacity="1"
   id="id-655c26ea-bc2e-4a2f-9492-5119bb9af7f9"
   transform="translate(-148.946,-128.531)">
    <g
   transform="translate(152.31,136.259)"
   id="g22086"><path
   d="m 2.328125,-4.4375 c 0,-0.1875 0,-0.1875 -0.203125,-0.1875 -0.453125,0.4375 -1.078125,0.4375 -1.359375,0.4375 v 0.25 c 0.15625,0 0.625,0 1,-0.1875 v 3.546875 c 0,0.234375 0,0.328125 -0.6875,0.328125 H 0.8125 V 0 c 0.125,0 0.984375,-0.03125 1.234375,-0.03125 0.21875,0 1.09375,0.03125 1.25,0.03125 V -0.25 H 3.03125 c -0.703125,0 -0.703125,-0.09375 -0.703125,-0.328125 z m 0,0"
   id="id-5f3187f2-7c83-47da-8702-190db5d753e0" />
      </g></g>
  <g
   fill="#000000"
   fill-opacity="1"
   id="id-0adb57c5-ee90-4589-89dc-cb686358c6fe"
   transform="translate(-148.946,-128.531)">
    <g
   transform="translate(159.547,134.765)"
   id="g22090"><path
   d="m 6.734375,-4.96875 c 0.109375,-0.0625 0.1875,-0.109375 0.1875,-0.21875 0,-0.109375 -0.09375,-0.203125 -0.203125,-0.203125 -0.03125,0 -0.046875,0 -0.171875,0.078125 l -5.53125,2.59375 c -0.109375,0.0625 -0.1875,0.109375 -0.1875,0.21875 0,0.125 0.078125,0.171875 0.1875,0.234375 l 5.53125,2.59375 C 6.671875,0.40625 6.6875,0.40625 6.71875,0.40625 c 0.109375,0 0.203125,-0.09375 0.203125,-0.203125 0,-0.109375 -0.078125,-0.15625 -0.1875,-0.21875 L 1.5,-2.5 Z m 0,0"
   id="id-7cabcbe3-c7ab-4c44-8474-5dcabd72a0a3" />
      </g></g>
  <g
   fill="#000000"
   fill-opacity="1"
   id="id-c865ecb5-65ef-4945-9188-87c9363529d4"
   transform="translate(-148.946,-128.531)">
    <g
   transform="translate(170.066,134.765)"
   id="g22094"><path
   d="m 2.046875,-3.984375 h 0.9375 c 0.203125,0 0.3125,0 0.3125,-0.203125 0,-0.109375 -0.109375,-0.109375 -0.28125,-0.109375 h -0.875 C 2.5,-5.71875 2.546875,-5.90625 2.546875,-5.96875 c 0,-0.171875 -0.125,-0.265625 -0.296875,-0.265625 -0.03125,0 -0.3125,0 -0.390625,0.359375 L 1.46875,-4.296875 h -0.9375 c -0.203125,0 -0.296875,0 -0.296875,0.1875 0,0.125 0.078125,0.125 0.28125,0.125 h 0.875 C 0.671875,-1.15625 0.625,-0.984375 0.625,-0.8125 0.625,-0.265625 1,0.109375 1.546875,0.109375 2.5625,0.109375 3.125,-1.34375 3.125,-1.421875 3.125,-1.53125 3.046875,-1.53125 3.015625,-1.53125 2.921875,-1.53125 2.90625,-1.5 2.859375,-1.390625 2.4375,-0.34375 1.90625,-0.109375 1.5625,-0.109375 c -0.203125,0 -0.3125,-0.125 -0.3125,-0.453125 0,-0.25 0.03125,-0.3125 0.0625,-0.484375 z m 0,0"
   id="id-2306c8a1-6afe-4343-9ca0-8e583a7858f1" />
      </g></g>
  <g
   fill="#000000"
   fill-opacity="1"
   id="id-d36ad810-3f88-4be6-bb94-d0b82c45585f"
   transform="translate(-148.946,-128.531)">
    <g
   transform="translate(173.66,136.259)"
   id="g22098"><path
   d="M 3.515625,-1.265625 H 3.28125 c -0.015625,0.15625 -0.09375,0.5625 -0.1875,0.625 C 3.046875,-0.59375 2.515625,-0.59375 2.40625,-0.59375 H 1.125 c 0.734375,-0.640625 0.984375,-0.84375 1.390625,-1.171875 0.515625,-0.40625 1,-0.84375 1,-1.5 0,-0.84375 -0.734375,-1.359375 -1.625,-1.359375 -0.859375,0 -1.453125,0.609375 -1.453125,1.25 0,0.34375 0.296875,0.390625 0.375,0.390625 0.15625,0 0.359375,-0.125 0.359375,-0.375 0,-0.125 -0.046875,-0.375 -0.40625,-0.375 C 0.984375,-4.21875 1.453125,-4.375 1.78125,-4.375 c 0.703125,0 1.0625,0.546875 1.0625,1.109375 0,0.609375 -0.4375,1.078125 -0.65625,1.328125 L 0.515625,-0.265625 C 0.4375,-0.203125 0.4375,-0.1875 0.4375,0 h 2.875 z m 0,0"
   id="id-7055caed-451c-484b-878b-9a709ef9c3f7" />
      </g></g>
</g><g
       transform="matrix(0.352778,0,0,0.352778,8.4305133,59.108666)"
       ns5:version="1.8.2"
       ns5:texconverter="pdflatex"
       ns5:pdfconverter="inkscape"
       ns5:text="$t_0 &lt; t_2$"
       ns5:preamble="/home/peter/.config/inkscape/extensions/textext/default_packages.tex"
       ns5:scale="1.0"
       ns5:alignment="middle center"
       ns5:stroke-to-path="0"
       ns5:inkscapeversion="1.2.2"
       ns5:jacobian_sqrt="0.352778"
       id="g19902"><defs
   id="id-38ef2190-b6b6-41f2-99cc-3af5265eaa0c">
    <g
   id="id-645c4cec-f34f-4863-842d-d395558fc2b5">
      <g
   id="id-c9080eb1-e363-4e68-9507-2c85ac2c2176">
        <path
   d="m 2.046875,-3.984375 h 0.9375 c 0.203125,0 0.3125,0 0.3125,-0.203125 0,-0.109375 -0.109375,-0.109375 -0.28125,-0.109375 h -0.875 C 2.5,-5.71875 2.546875,-5.90625 2.546875,-5.96875 c 0,-0.171875 -0.125,-0.265625 -0.296875,-0.265625 -0.03125,0 -0.3125,0 -0.390625,0.359375 L 1.46875,-4.296875 h -0.9375 c -0.203125,0 -0.296875,0 -0.296875,0.1875 0,0.125 0.078125,0.125 0.28125,0.125 h 0.875 C 0.671875,-1.15625 0.625,-0.984375 0.625,-0.8125 0.625,-0.265625 1,0.109375 1.546875,0.109375 2.5625,0.109375 3.125,-1.34375 3.125,-1.421875 3.125,-1.53125 3.046875,-1.53125 3.015625,-1.53125 2.921875,-1.53125 2.90625,-1.5 2.859375,-1.390625 2.4375,-0.34375 1.90625,-0.109375 1.5625,-0.109375 c -0.203125,0 -0.3125,-0.125 -0.3125,-0.453125 0,-0.25 0.03125,-0.3125 0.0625,-0.484375 z m 0,0"
   id="id-b4f5c8f1-9587-49d4-a50f-44e0f7a476c5" />
      </g>
      <g
   id="id-4ee8f269-1a28-4c48-80b3-4b77dcdba72d">
        <path
   d="m 6.734375,-4.96875 c 0.109375,-0.0625 0.1875,-0.109375 0.1875,-0.21875 0,-0.109375 -0.09375,-0.203125 -0.203125,-0.203125 -0.03125,0 -0.046875,0 -0.171875,0.078125 l -5.53125,2.59375 c -0.109375,0.0625 -0.1875,0.109375 -0.1875,0.21875 0,0.125 0.078125,0.171875 0.1875,0.234375 l 5.53125,2.59375 C 6.671875,0.40625 6.6875,0.40625 6.71875,0.40625 c 0.109375,0 0.203125,-0.09375 0.203125,-0.203125 0,-0.109375 -0.078125,-0.15625 -0.1875,-0.21875 L 1.5,-2.5 Z m 0,0"
   id="id-0d56ab0d-cadf-4382-9bdf-a4f045d28b95" />
      </g>
      <g
   id="id-962921a3-4fbd-4eac-967f-a6b78991d785">
        <path
   d="M 3.59375,-2.21875 C 3.59375,-2.984375 3.5,-3.546875 3.1875,-4.03125 2.96875,-4.34375 2.53125,-4.625 1.984375,-4.625 c -1.625,0 -1.625,1.90625 -1.625,2.40625 0,0.5 0,2.359375 1.625,2.359375 1.609375,0 1.609375,-1.859375 1.609375,-2.359375 z M 1.984375,-0.0625 c -0.328125,0 -0.75,-0.1875 -0.890625,-0.75 C 1,-1.21875 1,-1.796875 1,-2.3125 1,-2.828125 1,-3.359375 1.09375,-3.734375 1.25,-4.28125 1.6875,-4.4375 1.984375,-4.4375 c 0.375,0 0.734375,0.234375 0.859375,0.640625 0.109375,0.375 0.125,0.875 0.125,1.484375 0,0.515625 0,1.03125 -0.09375,1.46875 -0.140625,0.640625 -0.609375,0.78125 -0.890625,0.78125 z m 0,0"
   id="id-4d744c6e-f544-4a4d-a60d-709697b781d0" />
      </g>
      <g
   id="id-ef138442-6bef-4701-9ee8-ae76e916d4ad">
        <path
   d="M 3.515625,-1.265625 H 3.28125 c -0.015625,0.15625 -0.09375,0.5625 -0.1875,0.625 C 3.046875,-0.59375 2.515625,-0.59375 2.40625,-0.59375 H 1.125 c 0.734375,-0.640625 0.984375,-0.84375 1.390625,-1.171875 0.515625,-0.40625 1,-0.84375 1,-1.5 0,-0.84375 -0.734375,-1.359375 -1.625,-1.359375 -0.859375,0 -1.453125,0.609375 -1.453125,1.25 0,0.34375 0.296875,0.390625 0.375,0.390625 0.15625,0 0.359375,-0.125 0.359375,-0.375 0,-0.125 -0.046875,-0.375 -0.40625,-0.375 C 0.984375,-4.21875 1.453125,-4.375 1.78125,-4.375 c 0.703125,0 1.0625,0.546875 1.0625,1.109375 0,0.609375 -0.4375,1.078125 -0.65625,1.328125 L 0.515625,-0.265625 C 0.4375,-0.203125 0.4375,-0.1875 0.4375,0 h 2.875 z m 0,0"
   id="id-838612a3-97b8-487f-94a9-873687337725" />
      </g>
    </g>
  </defs>
  <g
   fill="#000000"
   fill-opacity="1"
   id="id-dc6eacd9-2127-4f58-82ef-dbb97606d1b6"
   transform="translate(-148.946,-128.531)">
    <g
   transform="translate(148.712,134.765)"
   id="g22473"><path
   d="m 2.046875,-3.984375 h 0.9375 c 0.203125,0 0.3125,0 0.3125,-0.203125 0,-0.109375 -0.109375,-0.109375 -0.28125,-0.109375 h -0.875 C 2.5,-5.71875 2.546875,-5.90625 2.546875,-5.96875 c 0,-0.171875 -0.125,-0.265625 -0.296875,-0.265625 -0.03125,0 -0.3125,0 -0.390625,0.359375 L 1.46875,-4.296875 h -0.9375 c -0.203125,0 -0.296875,0 -0.296875,0.1875 0,0.125 0.078125,0.125 0.28125,0.125 h 0.875 C 0.671875,-1.15625 0.625,-0.984375 0.625,-0.8125 0.625,-0.265625 1,0.109375 1.546875,0.109375 2.5625,0.109375 3.125,-1.34375 3.125,-1.421875 3.125,-1.53125 3.046875,-1.53125 3.015625,-1.53125 2.921875,-1.53125 2.90625,-1.5 2.859375,-1.390625 2.4375,-0.34375 1.90625,-0.109375 1.5625,-0.109375 c -0.203125,0 -0.3125,-0.125 -0.3125,-0.453125 0,-0.25 0.03125,-0.3125 0.0625,-0.484375 z m 0,0"
   id="id-d2ebdb46-6032-49c3-bd61-84685ce96fd2" />
      </g></g>
  <g
   fill="#000000"
   fill-opacity="1"
   id="id-da0744b2-fe64-48d6-a234-0286730eb1d4"
   transform="translate(-148.946,-128.531)">
    <g
   transform="translate(152.31,136.259)"
   id="g22477"><path
   d="M 3.59375,-2.21875 C 3.59375,-2.984375 3.5,-3.546875 3.1875,-4.03125 2.96875,-4.34375 2.53125,-4.625 1.984375,-4.625 c -1.625,0 -1.625,1.90625 -1.625,2.40625 0,0.5 0,2.359375 1.625,2.359375 1.609375,0 1.609375,-1.859375 1.609375,-2.359375 z M 1.984375,-0.0625 c -0.328125,0 -0.75,-0.1875 -0.890625,-0.75 C 1,-1.21875 1,-1.796875 1,-2.3125 1,-2.828125 1,-3.359375 1.09375,-3.734375 1.25,-4.28125 1.6875,-4.4375 1.984375,-4.4375 c 0.375,0 0.734375,0.234375 0.859375,0.640625 0.109375,0.375 0.125,0.875 0.125,1.484375 0,0.515625 0,1.03125 -0.09375,1.46875 -0.140625,0.640625 -0.609375,0.78125 -0.890625,0.78125 z m 0,0"
   id="id-f4f4c435-4d5e-4595-a483-e4124e79da0f" />
      </g></g>
  <g
   fill="#000000"
   fill-opacity="1"
   id="id-f70f9f9f-2440-4f75-b276-c7a4668f046d"
   transform="translate(-148.946,-128.531)">
    <g
   transform="translate(159.547,134.765)"
   id="g22481"><path
   d="m 6.734375,-4.96875 c 0.109375,-0.0625 0.1875,-0.109375 0.1875,-0.21875 0,-0.109375 -0.09375,-0.203125 -0.203125,-0.203125 -0.03125,0 -0.046875,0 -0.171875,0.078125 l -5.53125,2.59375 c -0.109375,0.0625 -0.1875,0.109375 -0.1875,0.21875 0,0.125 0.078125,0.171875 0.1875,0.234375 l 5.53125,2.59375 C 6.671875,0.40625 6.6875,0.40625 6.71875,0.40625 c 0.109375,0 0.203125,-0.09375 0.203125,-0.203125 0,-0.109375 -0.078125,-0.15625 -0.1875,-0.21875 L 1.5,-2.5 Z m 0,0"
   id="id-5f1e7b52-4259-44fd-b425-fabc745799e4" />
      </g></g>
  <g
   fill="#000000"
   fill-opacity="1"
   id="id-2d80085a-69ed-4cda-a1f6-5a3e89454f91"
   transform="translate(-148.946,-128.531)">
    <g
   transform="translate(170.066,134.765)"
   id="g22485"><path
   d="m 2.046875,-3.984375 h 0.9375 c 0.203125,0 0.3125,0 0.3125,-0.203125 0,-0.109375 -0.109375,-0.109375 -0.28125,-0.109375 h -0.875 C 2.5,-5.71875 2.546875,-5.90625 2.546875,-5.96875 c 0,-0.171875 -0.125,-0.265625 -0.296875,-0.265625 -0.03125,0 -0.3125,0 -0.390625,0.359375 L 1.46875,-4.296875 h -0.9375 c -0.203125,0 -0.296875,0 -0.296875,0.1875 0,0.125 0.078125,0.125 0.28125,0.125 h 0.875 C 0.671875,-1.15625 0.625,-0.984375 0.625,-0.8125 0.625,-0.265625 1,0.109375 1.546875,0.109375 2.5625,0.109375 3.125,-1.34375 3.125,-1.421875 3.125,-1.53125 3.046875,-1.53125 3.015625,-1.53125 2.921875,-1.53125 2.90625,-1.5 2.859375,-1.390625 2.4375,-0.34375 1.90625,-0.109375 1.5625,-0.109375 c -0.203125,0 -0.3125,-0.125 -0.3125,-0.453125 0,-0.25 0.03125,-0.3125 0.0625,-0.484375 z m 0,0"
   id="id-6afbc5d3-850d-41ff-b66b-27d6bfbf4a02" />
      </g></g>
  <g
   fill="#000000"
   fill-opacity="1"
   id="id-b75f2b7d-1e4c-436f-b03c-01f98994a96a"
   transform="translate(-148.946,-128.531)">
    <g
   transform="translate(173.66,136.259)"
   id="g22489"><path
   d="M 3.515625,-1.265625 H 3.28125 c -0.015625,0.15625 -0.09375,0.5625 -0.1875,0.625 C 3.046875,-0.59375 2.515625,-0.59375 2.40625,-0.59375 H 1.125 c 0.734375,-0.640625 0.984375,-0.84375 1.390625,-1.171875 0.515625,-0.40625 1,-0.84375 1,-1.5 0,-0.84375 -0.734375,-1.359375 -1.625,-1.359375 -0.859375,0 -1.453125,0.609375 -1.453125,1.25 0,0.34375 0.296875,0.390625 0.375,0.390625 0.15625,0 0.359375,-0.125 0.359375,-0.375 0,-0.125 -0.046875,-0.375 -0.40625,-0.375 C 0.984375,-4.21875 1.453125,-4.375 1.78125,-4.375 c 0.703125,0 1.0625,0.546875 1.0625,1.109375 0,0.609375 -0.4375,1.078125 -0.65625,1.328125 L 0.515625,-0.265625 C 0.4375,-0.203125 0.4375,-0.1875 0.4375,0 h 2.875 z m 0,0"
   id="id-1164efe9-7e31-4263-ae85-92c51bf64549" />
      </g></g>
</g><g
       transform="matrix(0.352778,0,0,0.352778,24.2944,26.829633)"
       ns5:version="1.8.2"
       ns5:texconverter="pdflatex"
       ns5:pdfconverter="inkscape"
       ns5:text="$t_2 &lt; t_3$"
       ns5:preamble="/home/peter/.config/inkscape/extensions/textext/default_packages.tex"
       ns5:scale="1.0"
       ns5:alignment="middle center"
       ns5:stroke-to-path="0"
       ns5:inkscapeversion="1.2.2"
       ns5:jacobian_sqrt="0.352778"
       id="g20057"><defs
   id="id-5d5da92f-f8d5-48aa-b0eb-77b148b63caa">
    <g
   id="id-7b81e5ae-16ee-4568-be37-d58b3708399a">
      <g
   id="id-2cd373c1-c728-4225-80af-5c2a66bc60f4">
        <path
   d="m 2.046875,-3.984375 h 0.9375 c 0.203125,0 0.3125,0 0.3125,-0.203125 0,-0.109375 -0.109375,-0.109375 -0.28125,-0.109375 h -0.875 C 2.5,-5.71875 2.546875,-5.90625 2.546875,-5.96875 c 0,-0.171875 -0.125,-0.265625 -0.296875,-0.265625 -0.03125,0 -0.3125,0 -0.390625,0.359375 L 1.46875,-4.296875 h -0.9375 c -0.203125,0 -0.296875,0 -0.296875,0.1875 0,0.125 0.078125,0.125 0.28125,0.125 h 0.875 C 0.671875,-1.15625 0.625,-0.984375 0.625,-0.8125 0.625,-0.265625 1,0.109375 1.546875,0.109375 2.5625,0.109375 3.125,-1.34375 3.125,-1.421875 3.125,-1.53125 3.046875,-1.53125 3.015625,-1.53125 2.921875,-1.53125 2.90625,-1.5 2.859375,-1.390625 2.4375,-0.34375 1.90625,-0.109375 1.5625,-0.109375 c -0.203125,0 -0.3125,-0.125 -0.3125,-0.453125 0,-0.25 0.03125,-0.3125 0.0625,-0.484375 z m 0,0"
   id="id-7e834015-ebf0-44ee-875c-f7930b5641d6" />
      </g>
      <g
   id="id-da7258ba-a54f-4252-877d-dacfa9333b06">
        <path
   d="m 6.734375,-4.96875 c 0.109375,-0.0625 0.1875,-0.109375 0.1875,-0.21875 0,-0.109375 -0.09375,-0.203125 -0.203125,-0.203125 -0.03125,0 -0.046875,0 -0.171875,0.078125 l -5.53125,2.59375 c -0.109375,0.0625 -0.1875,0.109375 -0.1875,0.21875 0,0.125 0.078125,0.171875 0.1875,0.234375 l 5.53125,2.59375 C 6.671875,0.40625 6.6875,0.40625 6.71875,0.40625 c 0.109375,0 0.203125,-0.09375 0.203125,-0.203125 0,-0.109375 -0.078125,-0.15625 -0.1875,-0.21875 L 1.5,-2.5 Z m 0,0"
   id="id-97527296-d625-41c4-bf3a-633a8c3346f4" />
      </g>
      <g
   id="id-f91fa69e-4a54-446a-a416-da8b40c539e6">
        <path
   d="M 3.515625,-1.265625 H 3.28125 c -0.015625,0.15625 -0.09375,0.5625 -0.1875,0.625 C 3.046875,-0.59375 2.515625,-0.59375 2.40625,-0.59375 H 1.125 c 0.734375,-0.640625 0.984375,-0.84375 1.390625,-1.171875 0.515625,-0.40625 1,-0.84375 1,-1.5 0,-0.84375 -0.734375,-1.359375 -1.625,-1.359375 -0.859375,0 -1.453125,0.609375 -1.453125,1.25 0,0.34375 0.296875,0.390625 0.375,0.390625 0.15625,0 0.359375,-0.125 0.359375,-0.375 0,-0.125 -0.046875,-0.375 -0.40625,-0.375 C 0.984375,-4.21875 1.453125,-4.375 1.78125,-4.375 c 0.703125,0 1.0625,0.546875 1.0625,1.109375 0,0.609375 -0.4375,1.078125 -0.65625,1.328125 L 0.515625,-0.265625 C 0.4375,-0.203125 0.4375,-0.1875 0.4375,0 h 2.875 z m 0,0"
   id="id-37f182f0-9539-4851-9715-460f6bfea880" />
      </g>
      <g
   id="id-2bdfb47a-97b1-4e1f-aca8-961e36962987">
        <path
   d="m 1.90625,-2.328125 c 0.546875,0 0.9375,0.375 0.9375,1.125 0,0.859375 -0.515625,1.125 -0.90625,1.125 -0.28125,0 -0.90625,-0.078125 -1.1875,-0.5 0.328125,0 0.40625,-0.234375 0.40625,-0.390625 0,-0.21875 -0.171875,-0.375 -0.390625,-0.375 -0.1875,0 -0.390625,0.125 -0.390625,0.40625 0,0.65625 0.71875,1.078125 1.5625,1.078125 0.96875,0 1.640625,-0.65625 1.640625,-1.34375 0,-0.546875 -0.4375,-1.09375 -1.203125,-1.25 0.71875,-0.265625 0.984375,-0.78125 0.984375,-1.21875 0,-0.546875 -0.625,-0.953125 -1.40625,-0.953125 -0.765625,0 -1.359375,0.375 -1.359375,0.9375 0,0.234375 0.15625,0.359375 0.359375,0.359375 0.21875,0 0.359375,-0.15625 0.359375,-0.34375 0,-0.203125 -0.140625,-0.359375 -0.359375,-0.375 0.25,-0.296875 0.71875,-0.375 0.984375,-0.375 0.3125,0 0.75,0.15625 0.75,0.75 0,0.296875 -0.09375,0.625 -0.28125,0.828125 -0.21875,0.265625 -0.421875,0.28125 -0.765625,0.3125 -0.171875,0.015625 -0.1875,0.015625 -0.21875,0.015625 -0.015625,0 -0.078125,0.015625 -0.078125,0.09375 0,0.09375 0.0625,0.09375 0.1875,0.09375 z m 0,0"
   id="id-57337d98-f3ea-4c4b-bd1c-ac3ca0d2cec2" />
      </g>
    </g>
  </defs>
  <g
   fill="#000000"
   fill-opacity="1"
   id="id-5aa429c8-c5f0-4f64-b22d-45d14104f744"
   transform="translate(-148.946,-128.531)">
    <g
   transform="translate(148.712,134.765)"
   id="g22880"><path
   d="m 2.046875,-3.984375 h 0.9375 c 0.203125,0 0.3125,0 0.3125,-0.203125 0,-0.109375 -0.109375,-0.109375 -0.28125,-0.109375 h -0.875 C 2.5,-5.71875 2.546875,-5.90625 2.546875,-5.96875 c 0,-0.171875 -0.125,-0.265625 -0.296875,-0.265625 -0.03125,0 -0.3125,0 -0.390625,0.359375 L 1.46875,-4.296875 h -0.9375 c -0.203125,0 -0.296875,0 -0.296875,0.1875 0,0.125 0.078125,0.125 0.28125,0.125 h 0.875 C 0.671875,-1.15625 0.625,-0.984375 0.625,-0.8125 0.625,-0.265625 1,0.109375 1.546875,0.109375 2.5625,0.109375 3.125,-1.34375 3.125,-1.421875 3.125,-1.53125 3.046875,-1.53125 3.015625,-1.53125 2.921875,-1.53125 2.90625,-1.5 2.859375,-1.390625 2.4375,-0.34375 1.90625,-0.109375 1.5625,-0.109375 c -0.203125,0 -0.3125,-0.125 -0.3125,-0.453125 0,-0.25 0.03125,-0.3125 0.0625,-0.484375 z m 0,0"
   id="id-0237cf5f-68a9-42cc-b54a-c28328cb8504" />
      </g></g>
  <g
   fill="#000000"
   fill-opacity="1"
   id="id-4a350992-d901-44e8-93c8-e234ebc5ed06"
   transform="translate(-148.946,-128.531)">
    <g
   transform="translate(152.31,136.259)"
   id="g22884"><path
   d="M 3.515625,-1.265625 H 3.28125 c -0.015625,0.15625 -0.09375,0.5625 -0.1875,0.625 C 3.046875,-0.59375 2.515625,-0.59375 2.40625,-0.59375 H 1.125 c 0.734375,-0.640625 0.984375,-0.84375 1.390625,-1.171875 0.515625,-0.40625 1,-0.84375 1,-1.5 0,-0.84375 -0.734375,-1.359375 -1.625,-1.359375 -0.859375,0 -1.453125,0.609375 -1.453125,1.25 0,0.34375 0.296875,0.390625 0.375,0.390625 0.15625,0 0.359375,-0.125 0.359375,-0.375 0,-0.125 -0.046875,-0.375 -0.40625,-0.375 C 0.984375,-4.21875 1.453125,-4.375 1.78125,-4.375 c 0.703125,0 1.0625,0.546875 1.0625,1.109375 0,0.609375 -0.4375,1.078125 -0.65625,1.328125 L 0.515625,-0.265625 C 0.4375,-0.203125 0.4375,-0.1875 0.4375,0 h 2.875 z m 0,0"
   id="id-3937b2eb-670f-4f53-b13d-89266809f318" />
      </g></g>
  <g
   fill="#000000"
   fill-opacity="1"
   id="id-32d9445f-e0ac-4063-9aeb-fe7926cf102a"
   transform="translate(-148.946,-128.531)">
    <g
   transform="translate(159.547,134.765)"
   id="g22888"><path
   d="m 6.734375,-4.96875 c 0.109375,-0.0625 0.1875,-0.109375 0.1875,-0.21875 0,-0.109375 -0.09375,-0.203125 -0.203125,-0.203125 -0.03125,0 -0.046875,0 -0.171875,0.078125 l -5.53125,2.59375 c -0.109375,0.0625 -0.1875,0.109375 -0.1875,0.21875 0,0.125 0.078125,0.171875 0.1875,0.234375 l 5.53125,2.59375 C 6.671875,0.40625 6.6875,0.40625 6.71875,0.40625 c 0.109375,0 0.203125,-0.09375 0.203125,-0.203125 0,-0.109375 -0.078125,-0.15625 -0.1875,-0.21875 L 1.5,-2.5 Z m 0,0"
   id="id-e5c8d44c-ef49-4061-b2a7-089eccfecff7" />
      </g></g>
  <g
   fill="#000000"
   fill-opacity="1"
   id="id-28a140f5-ed1f-4034-b177-925987f69326"
   transform="translate(-148.946,-128.531)">
    <g
   transform="translate(170.066,134.765)"
   id="g22892"><path
   d="m 2.046875,-3.984375 h 0.9375 c 0.203125,0 0.3125,0 0.3125,-0.203125 0,-0.109375 -0.109375,-0.109375 -0.28125,-0.109375 h -0.875 C 2.5,-5.71875 2.546875,-5.90625 2.546875,-5.96875 c 0,-0.171875 -0.125,-0.265625 -0.296875,-0.265625 -0.03125,0 -0.3125,0 -0.390625,0.359375 L 1.46875,-4.296875 h -0.9375 c -0.203125,0 -0.296875,0 -0.296875,0.1875 0,0.125 0.078125,0.125 0.28125,0.125 h 0.875 C 0.671875,-1.15625 0.625,-0.984375 0.625,-0.8125 0.625,-0.265625 1,0.109375 1.546875,0.109375 2.5625,0.109375 3.125,-1.34375 3.125,-1.421875 3.125,-1.53125 3.046875,-1.53125 3.015625,-1.53125 2.921875,-1.53125 2.90625,-1.5 2.859375,-1.390625 2.4375,-0.34375 1.90625,-0.109375 1.5625,-0.109375 c -0.203125,0 -0.3125,-0.125 -0.3125,-0.453125 0,-0.25 0.03125,-0.3125 0.0625,-0.484375 z m 0,0"
   id="id-30fc0713-c025-4973-ae2d-018dde7c9185" />
      </g></g>
  <g
   fill="#000000"
   fill-opacity="1"
   id="id-a912e3bf-df8e-4d7d-a1fc-1c5d7b49dea6"
   transform="translate(-148.946,-128.531)">
    <g
   transform="translate(173.66,136.259)"
   id="g22896"><path
   d="m 1.90625,-2.328125 c 0.546875,0 0.9375,0.375 0.9375,1.125 0,0.859375 -0.515625,1.125 -0.90625,1.125 -0.28125,0 -0.90625,-0.078125 -1.1875,-0.5 0.328125,0 0.40625,-0.234375 0.40625,-0.390625 0,-0.21875 -0.171875,-0.375 -0.390625,-0.375 -0.1875,0 -0.390625,0.125 -0.390625,0.40625 0,0.65625 0.71875,1.078125 1.5625,1.078125 0.96875,0 1.640625,-0.65625 1.640625,-1.34375 0,-0.546875 -0.4375,-1.09375 -1.203125,-1.25 0.71875,-0.265625 0.984375,-0.78125 0.984375,-1.21875 0,-0.546875 -0.625,-0.953125 -1.40625,-0.953125 -0.765625,0 -1.359375,0.375 -1.359375,0.9375 0,0.234375 0.15625,0.359375 0.359375,0.359375 0.21875,0 0.359375,-0.15625 0.359375,-0.34375 0,-0.203125 -0.140625,-0.359375 -0.359375,-0.375 0.25,-0.296875 0.71875,-0.375 0.984375,-0.375 0.3125,0 0.75,0.15625 0.75,0.75 0,0.296875 -0.09375,0.625 -0.28125,0.828125 -0.21875,0.265625 -0.421875,0.28125 -0.765625,0.3125 -0.171875,0.015625 -0.1875,0.015625 -0.21875,0.015625 -0.015625,0 -0.078125,0.015625 -0.078125,0.09375 0,0.09375 0.0625,0.09375 0.1875,0.09375 z m 0,0"
   id="id-8f8ee029-677a-4a3a-9b55-5363be367da7" />
      </g></g>
</g></g><g
     inkscape:groupmode="layer"
     id="layer6"
     inkscape:label="muts"
     style="display:inline"><path
       sodipodi:type="star"
       style="display:inline;fill:#9f4a96;fill-opacity:1;stroke:#9f4a96;stroke-width:0.176389;stroke-linecap:round;stroke-dasharray:none;stroke-opacity:1"
       id="path13293"
       inkscape:flatsided="false"
       sodipodi:sides="5"
       sodipodi:cx="48.755329"
       sodipodi:cy="54.181515"
       sodipodi:r1="0.8814007"
       sodipodi:r2="0.32777089"
       sodipodi:arg1="-1.5707963"
       sodipodi:arg2="-0.9424778"
       inkscape:rounded="0"
       inkscape:randomized="0"
       d="m 48.755329,53.300114 0.192659,0.616229 0.645603,-0.0072 -0.526533,0.373655 0.206345,0.611781 -0.518074,-0.385297 -0.518074,0.385297 0.206345,-0.611781 -0.526533,-0.373655 0.645603,0.0072 z"
       inkscape:transform-center-y="-0.17680991"
       transform="matrix(2.1006825,0,0,2.1006825,-45.846531,-40.344703)"
       inkscape:transform-center-x="1.6691986e-06" /><path
       sodipodi:type="star"
       style="display:inline;fill:#9f4a96;fill-opacity:1;stroke:#9f4a96;stroke-width:0.176389;stroke-linecap:round;stroke-dasharray:none;stroke-opacity:1"
       id="path23763"
       inkscape:flatsided="false"
       sodipodi:sides="5"
       sodipodi:cx="48.755329"
       sodipodi:cy="54.181515"
       sodipodi:r1="0.8814007"
       sodipodi:r2="0.32777089"
       sodipodi:arg1="-1.5707963"
       sodipodi:arg2="-0.9424778"
       inkscape:rounded="0"
       inkscape:randomized="0"
       d="m 48.755329,53.300114 0.192659,0.616229 0.645603,-0.0072 -0.526533,0.373655 0.206345,0.611781 -0.518074,-0.385297 -0.518074,0.385297 0.206345,-0.611781 -0.526533,-0.373655 0.645603,0.0072 z"
       inkscape:transform-center-y="-0.17680991"
       transform="matrix(2.1006825,0,0,2.1006825,-49.02153,-76.328038)"
       inkscape:transform-center-x="1.6691986e-06" /><path
       sodipodi:type="star"
       style="display:inline;fill:#9f4a96;fill-opacity:1;stroke:#9f4a96;stroke-width:0.176389;stroke-linecap:round;stroke-dasharray:none;stroke-opacity:1"
       id="path23765"
       inkscape:flatsided="false"
       sodipodi:sides="5"
       sodipodi:cx="48.755329"
       sodipodi:cy="54.181515"
       sodipodi:r1="0.8814007"
       sodipodi:r2="0.32777089"
       sodipodi:arg1="-1.5707963"
       sodipodi:arg2="-0.9424778"
       inkscape:rounded="0"
       inkscape:randomized="0"
       d="m 48.755329,53.300114 0.192659,0.616229 0.645603,-0.0072 -0.526533,0.373655 0.206345,0.611781 -0.518074,-0.385297 -0.518074,0.385297 0.206345,-0.611781 -0.526533,-0.373655 0.645603,0.0072 z"
       inkscape:transform-center-y="-0.17680991"
       transform="matrix(2.1006825,0,0,2.1006825,-50.079864,-83.207209)"
       inkscape:transform-center-x="1.6691986e-06" /><path
       sodipodi:type="star"
       style="display:inline;fill:#9f4a96;fill-opacity:1;stroke:#9f4a96;stroke-width:0.176389;stroke-linecap:round;stroke-dasharray:none;stroke-opacity:1"
       id="path23767"
       inkscape:flatsided="false"
       sodipodi:sides="5"
       sodipodi:cx="48.755329"
       sodipodi:cy="54.181515"
       sodipodi:r1="0.8814007"
       sodipodi:r2="0.32777089"
       sodipodi:arg1="-1.5707963"
       sodipodi:arg2="-0.9424778"
       inkscape:rounded="0"
       inkscape:randomized="0"
       d="m 48.755329,53.300114 0.192659,0.616229 0.645603,-0.0072 -0.526533,0.373655 0.206345,0.611781 -0.518074,-0.385297 -0.518074,0.385297 0.206345,-0.611781 -0.526533,-0.373655 0.645603,0.0072 z"
       inkscape:transform-center-y="-0.17680991"
       transform="matrix(2.1006825,0,0,2.1006825,-70.717368,-80.03221)"
       inkscape:transform-center-x="1.6691986e-06" /><path
       sodipodi:type="star"
       style="display:inline;fill:#9f4a96;fill-opacity:1;stroke:#9f4a96;stroke-width:0.176389;stroke-linecap:round;stroke-dasharray:none;stroke-opacity:1"
       id="path23769"
       inkscape:flatsided="false"
       sodipodi:sides="5"
       sodipodi:cx="48.755329"
       sodipodi:cy="54.181515"
       sodipodi:r1="0.8814007"
       sodipodi:r2="0.32777089"
       sodipodi:arg1="-1.5707963"
       sodipodi:arg2="-0.9424778"
       inkscape:rounded="0"
       inkscape:randomized="0"
       d="m 48.755329,53.300114 0.192659,0.616229 0.645603,-0.0072 -0.526533,0.373655 0.206345,0.611781 -0.518074,-0.385297 -0.518074,0.385297 0.206345,-0.611781 -0.526533,-0.373655 0.645603,0.0072 z"
       inkscape:transform-center-y="-0.17680991"
       transform="matrix(2.1006825,0,0,2.1006825,-68.071533,-42.990541)"
       inkscape:transform-center-x="1.6691986e-06" /><path
       sodipodi:type="star"
       style="display:inline;fill:#9f4a96;fill-opacity:1;stroke:#9f4a96;stroke-width:0.176389;stroke-linecap:round;stroke-dasharray:none;stroke-opacity:1"
       id="path23771"
       inkscape:flatsided="false"
       sodipodi:sides="5"
       sodipodi:cx="48.755329"
       sodipodi:cy="54.181515"
       sodipodi:r1="0.8814007"
       sodipodi:r2="0.32777089"
       sodipodi:arg1="-1.5707963"
       sodipodi:arg2="-0.9424778"
       inkscape:rounded="0"
       inkscape:randomized="0"
       d="m 48.755329,53.300114 0.192659,0.616229 0.645603,-0.0072 -0.526533,0.373655 0.206345,0.611781 -0.518074,-0.385297 -0.518074,0.385297 0.206345,-0.611781 -0.526533,-0.373655 0.645603,0.0072 z"
       inkscape:transform-center-y="-0.17680991"
       transform="matrix(2.1006825,0,0,2.1006825,-62.779863,-30.290539)"
       inkscape:transform-center-x="1.6691986e-06" /><path
       sodipodi:type="star"
       style="display:inline;fill:#9f4a96;fill-opacity:1;stroke:#9f4a96;stroke-width:0.176389;stroke-linecap:round;stroke-dasharray:none;stroke-opacity:1"
       id="path23773"
       inkscape:flatsided="false"
       sodipodi:sides="5"
       sodipodi:cx="48.755329"
       sodipodi:cy="54.181515"
       sodipodi:r1="0.8814007"
       sodipodi:r2="0.32777089"
       sodipodi:arg1="-1.5707963"
       sodipodi:arg2="-0.9424778"
       inkscape:rounded="0"
       inkscape:randomized="0"
       d="m 48.755329,53.300114 0.192659,0.616229 0.645603,-0.0072 -0.526533,0.373655 0.206345,0.611781 -0.518074,-0.385297 -0.518074,0.385297 0.206345,-0.611781 -0.526533,-0.373655 0.645603,0.0072 z"
       inkscape:transform-center-y="-0.17680991"
       transform="matrix(2.1006825,0,0,2.1006825,-90.296532,-30.290539)"
       inkscape:transform-center-x="1.6691986e-06" /><path
       sodipodi:type="star"
       style="display:inline;fill:#9f4a96;fill-opacity:1;stroke:#9f4a96;stroke-width:0.176389;stroke-linecap:round;stroke-dasharray:none;stroke-opacity:1"
       id="path23775"
       inkscape:flatsided="false"
       sodipodi:sides="5"
       sodipodi:cx="48.755329"
       sodipodi:cy="54.181515"
       sodipodi:r1="0.8814007"
       sodipodi:r2="0.32777089"
       sodipodi:arg1="-1.5707963"
       sodipodi:arg2="-0.9424778"
       inkscape:rounded="0"
       inkscape:randomized="0"
       d="m 48.755329,53.300114 0.192659,0.616229 0.645603,-0.0072 -0.526533,0.373655 0.206345,0.611781 -0.518074,-0.385297 -0.518074,0.385297 0.206345,-0.611781 -0.526533,-0.373655 0.645603,0.0072 z"
       inkscape:transform-center-y="-0.17680991"
       transform="matrix(2.1006825,0,0,2.1006825,-91.354866,-35.582209)"
       inkscape:transform-center-x="1.6691986e-06" /><path
       sodipodi:type="star"
       style="display:inline;fill:#9f4a96;fill-opacity:1;stroke:#9f4a96;stroke-width:0.176389;stroke-linecap:round;stroke-dasharray:none;stroke-opacity:1"
       id="path23777"
       inkscape:flatsided="false"
       sodipodi:sides="5"
       sodipodi:cx="48.755329"
       sodipodi:cy="54.181515"
       sodipodi:r1="0.8814007"
       sodipodi:r2="0.32777089"
       sodipodi:arg1="-1.5707963"
       sodipodi:arg2="-0.9424778"
       inkscape:rounded="0"
       inkscape:randomized="0"
       d="m 48.755329,53.300114 0.192659,0.616229 0.645603,-0.0072 -0.526533,0.373655 0.206345,0.611781 -0.518074,-0.385297 -0.518074,0.385297 0.206345,-0.611781 -0.526533,-0.373655 0.645603,0.0072 z"
       inkscape:transform-center-y="-0.17680991"
       transform="matrix(2.1006825,0,0,2.1006825,-86.592363,-47.75305)"
       inkscape:transform-center-x="1.6691986e-06" /></g><g
     inkscape:groupmode="layer"
     id="layer8"
     inkscape:label="curves"><path
       style="display:inline;fill:#959595;fill-opacity:0.588917;fill-rule:evenodd;stroke:#000000;stroke-width:0.264583px;stroke-linecap:butt;stroke-linejoin:miter;stroke-opacity:1"
       d="M 75.419115,82.475162 V 57.103325 c 2e-6,8.327251 5.713215,13.111044 5.713215,18.30654 0,5.195496 -5.713217,1.992539 -5.713215,7.065297 z"
       id="path538"
       transform="translate(-1.9447937,-25.789795)" /><path
       style="display:inline;fill:#959595;fill-opacity:0.588917;fill-rule:evenodd;stroke:#000000;stroke-width:0.264583px;stroke-linecap:butt;stroke-linejoin:miter;stroke-opacity:1"
       d="m 75.404627,48.086214 0.01449,-20.087056 c 3.635309,4.201191 5.49931,5.561265 5.49931,10.756761 0,5.195496 -5.5138,4.257537 -5.513798,9.330295 z"
       id="path1166"
       sodipodi:nodetypes="ccsc"
       transform="translate(-1.9447937,-25.789795)" /></g><g
     inkscape:groupmode="layer"
     id="layer9"
     inkscape:label="empty" /></svg>
